<svg version="1.1" id="Layer_1" xmlns="http://www.w3.org/2000/svg" xmlns:xlink="http://www.w3.org/1999/xlink" x="0px" y="0px"
	 width="100%" viewBox="0 0 500 500" enable-background="new 0 0 500 500" xml:space="preserve">


<path fill="#A6A6A6" opacity="1.000000" stroke="none" 
	d="
M64.064049,220.960938 
	C87.471046,219.701080 110.878052,218.441238 134.676498,217.529144 
	C133.006516,224.005142 130.981949,230.146286 128.848999,236.249557 
	C128.473099,237.325180 127.830750,238.462830 126.981491,239.182495 
	C125.620300,240.335999 123.606041,240.858276 122.530861,242.184784 
	C118.660271,246.960098 115.346947,252.208374 111.279297,256.795807 
	C108.112572,260.367218 104.223213,263.329529 100.464691,266.323639 
	C99.441177,267.138977 97.044403,267.811523 96.484222,267.279449 
	C95.492172,266.337219 94.951805,264.384399 95.067459,262.921295 
	C95.314781,259.792450 96.460884,256.718903 96.571167,253.599136 
	C96.692657,250.162415 98.889809,249.319534 101.246826,247.596619 
	C106.516045,243.744934 111.925232,239.577087 115.761475,234.412094 
	C119.786224,228.993317 116.717728,223.571228 110.032501,222.262955 
	C104.863174,221.251328 101.121269,223.810333 97.750114,227.368744 
	C88.314026,237.329010 86.812057,249.961716 85.728378,262.736603 
	C85.662415,263.514221 86.017754,264.374634 86.334702,265.130402 
	C89.626244,272.979309 98.170639,275.172943 104.612114,269.664642 
	C106.864944,267.738220 108.733345,265.337494 110.648262,263.045593 
	C115.112923,257.701965 119.499260,252.292877 124.012009,247.010925 
	C124.106682,247.111526 124.294548,247.314133 124.300194,247.693604 
	C123.173126,253.406433 122.036659,258.739014 120.909981,264.073669 
	C120.567268,265.696350 119.646774,267.503418 120.062195,268.909546 
	C120.720497,271.137817 121.864601,274.334930 123.550804,274.903046 
	C126.562141,275.917633 129.478653,274.888733 130.483994,270.653015 
	C132.015594,264.199890 134.225845,257.904022 136.241776,251.571259 
	C137.353043,248.080444 138.868347,245.209900 143.565369,246.110840 
	C145.197098,246.423828 147.230896,245.704468 148.833755,244.938873 
	C164.343719,237.530670 177.493118,227.487411 185.328766,211.646210 
	C191.358749,211.154907 197.388733,210.663605 203.582703,210.783691 
	C202.297562,211.947220 200.848465,212.499329 199.399353,213.051453 
	C199.462509,213.460281 199.525665,213.869110 199.588837,214.277939 
	C207.566895,214.277939 215.544968,214.277939 224.021606,214.277939 
	C220.777786,222.696152 218.566742,231.210846 214.360092,238.587524 
	C209.957260,246.308243 203.757858,253.034149 198.085968,259.984528 
	C196.228134,262.261139 193.698959,264.085388 191.215057,265.718445 
	C189.807434,266.643921 187.868912,266.761871 186.169510,267.243530 
	C185.726776,265.579590 184.849213,263.892548 184.936142,262.256744 
	C185.093857,259.289459 185.980698,256.368042 186.274704,253.398895 
	C186.571106,250.405380 188.037521,248.979507 190.828125,247.766891 
	C197.375290,244.921921 202.723389,240.368820 205.964859,233.893204 
	C208.753082,228.323013 206.628174,224.181763 200.608734,222.505554 
	C194.754288,220.875275 190.603897,223.784851 187.073074,227.836746 
	C178.831894,237.294144 175.944092,248.813644 175.278412,260.920715 
	C174.985596,266.246735 178.554626,269.738861 183.165375,272.088074 
	C187.401276,274.246307 191.011551,272.841919 194.067413,269.884827 
	C196.799652,267.240875 199.198120,264.245544 201.677002,261.348053 
	C204.294556,258.288483 206.833023,255.161270 209.406052,252.063614 
	C209.663467,255.475800 209.061874,258.376862 208.468369,261.279633 
	C207.869232,264.209930 207.021210,267.118896 206.756226,270.079620 
	C206.494568,273.003265 206.238007,276.145508 207.013580,278.900665 
	C208.918579,285.667908 215.915604,287.357269 220.404114,281.976685 
	C228.141174,272.701874 235.397079,263.025696 242.257751,254.279175 
	C245.753464,256.879944 249.245758,261.477448 252.990295,261.692993 
	C256.620819,261.902008 260.510529,257.608734 264.174225,255.361557 
	C263.340240,259.315643 262.282318,263.825653 261.457581,268.377930 
	C260.559113,273.337067 260.164276,278.300903 262.771393,282.982605 
	C250.392075,284.768372 238.400284,286.347717 226.426270,288.052032 
	C219.909683,288.979584 213.423309,290.119324 206.923309,291.163361 
	C221.614212,291.107697 236.141479,289.875183 250.678940,288.777832 
	C272.509796,287.130005 294.347839,285.576935 316.572449,283.944397 
	C318.974823,283.611664 320.987549,283.318085 323.175720,283.262299 
	C324.209045,283.919769 325.066956,284.339447 325.924835,284.759125 
	C294.825592,287.535095 263.736023,290.425232 232.624359,293.054108 
	C203.165588,295.543365 173.691025,297.857361 144.209564,300.063385 
	C120.025230,301.873077 95.767128,302.881256 71.649574,305.313904 
	C61.078648,306.380188 51.240707,303.495148 41.036407,302.952850 
	C30.250534,302.379669 19.445967,302.155548 8.648952,301.797485 
	C7.015254,301.743317 5.378214,301.789948 3.745481,301.789948 
	C3.017085,297.800293 2.342457,294.105133 1.333915,290.204987 
	C1.000000,287.958344 1.000000,285.916656 1.321772,283.312622 
	C7.614270,274.613312 16.970900,277.849213 24.640024,276.377533 
	C26.010647,271.232758 24.766802,268.936493 19.550669,267.746460 
	C13.185366,266.294312 7.167897,263.317474 0.999999,261.000000 
	C1.000000,250.979111 1.000000,240.958206 1.000000,230.468658 
	C17.721148,225.165421 34.827412,222.784103 52.657829,222.435425 
	C50.795353,234.122330 48.545315,245.360474 45.999386,256.531158 
	C45.674809,257.955292 43.874992,259.102234 42.637924,260.247162 
	C40.008862,262.680420 36.916077,264.726624 34.740749,267.501648 
	C32.854900,269.907410 32.103436,273.482788 35.504005,275.335571 
	C38.529270,276.983917 41.620728,276.786011 44.068665,273.169128 
	C45.758389,270.672485 48.323071,268.181000 51.056629,267.089844 
	C58.733696,264.025482 66.740250,261.798126 74.535141,259.012054 
	C78.002228,257.772827 81.273071,255.984558 84.632980,254.445496 
	C84.401237,253.869843 84.169487,253.294174 83.937744,252.718521 
	C73.727371,250.703033 63.924042,254.248596 53.549213,256.131042 
	C57.220627,243.850876 60.642338,232.405899 64.064049,220.960938 
z"/>
<path fill="#A5A5A5" opacity="1.000000" stroke="none" 
	d="
M473.085236,210.948853 
	C476.838531,210.948853 480.591858,210.948853 483.970001,210.948853 
	C484.281891,214.852570 484.548767,218.193008 484.839630,221.833588 
	C490.430634,221.136948 495.275726,220.533234 500.560425,219.964752 
	C501.000000,232.020889 501.000000,244.041794 501.000000,256.531342 
	C489.792908,257.506348 478.585785,258.012695 467.250671,257.850677 
	C476.396973,248.174850 479.123199,243.952652 478.126770,239.136261 
	C476.538239,240.858780 475.286621,242.292236 473.953979,243.645920 
	C470.699585,246.951614 467.714752,250.621979 464.062408,253.414398 
	C457.852844,258.161987 456.301849,257.411560 455.023285,250.092438 
	C454.937775,249.602997 454.960022,248.999725 454.678802,248.657730 
	C453.901703,247.712662 452.990265,246.878067 452.131958,245.999817 
	C451.309998,246.932419 449.811432,247.847305 449.786499,248.800766 
	C449.692627,252.386566 450.078979,255.984940 449.824799,259.721222 
	C446.493530,259.805389 443.622925,259.746948 440.718689,259.305786 
	C443.088867,254.479736 445.095551,249.758698 447.971893,245.645813 
	C456.153107,233.947342 464.688965,222.496918 473.085236,210.948853 
z"/>

<path fill="#292929" opacity="1.000000" stroke="none" 
	d="
M450.285461,259.578613 
	C450.078979,255.984940 449.692627,252.386566 449.786499,248.800766 
	C449.811432,247.847305 451.309998,246.932419 452.131958,245.999817 
	C452.990265,246.878067 453.901703,247.712662 454.678802,248.657730 
	C454.960022,248.999725 454.937775,249.602997 455.023285,250.092438 
	C456.301849,257.411560 457.852844,258.161987 464.062408,253.414398 
	C467.714752,250.621979 470.699585,246.951614 473.953979,243.645920 
	C475.286621,242.292236 476.538239,240.858780 478.126770,239.136261 
	C479.123199,243.952652 476.396973,248.174850 467.060608,257.506744 
	C463.046051,259.311218 459.093567,260.791290 454.747650,262.922241 
	C453.563629,267.710968 452.773071,271.848755 451.982483,275.986572 
	C450.405182,280.146271 449.121063,284.448608 447.182251,288.432343 
	C444.240601,294.476501 440.029663,297.127106 435.697174,295.935181 
	C430.089874,294.392487 428.862671,289.713165 428.365173,284.736206 
	C428.168304,282.766663 428.272675,280.767029 428.391510,277.973999 
	C430.162720,269.577179 431.782349,261.987457 433.568451,254.217651 
	C433.656189,253.757263 433.577423,253.476944 433.498657,253.196625 
	C433.265381,253.394699 433.032104,253.592773 432.502289,253.959183 
	C427.160522,259.719543 422.285187,265.478577 417.009796,270.844330 
	C413.550201,274.363190 409.552612,273.362732 405.648376,271.014252 
	C401.814850,268.708313 399.595001,265.595367 399.760925,260.635681 
	C399.849121,258.716858 399.849121,257.189148 399.849121,254.445206 
	C398.679291,256.474579 398.085297,257.505066 397.314758,258.733124 
	C397.168335,259.175385 397.198395,259.420074 397.228424,259.664734 
	C397.523529,259.484406 397.818665,259.304047 398.382416,259.227386 
	C398.753479,259.881561 398.855896,260.432037 398.593964,260.960602 
	C395.745422,263.178619 393.107422,265.272217 390.808563,267.688477 
	C385.811127,272.941101 381.844727,273.007629 377.142639,267.456909 
	C373.892120,263.619629 373.127075,259.111420 374.973907,254.480942 
	C378.340973,246.038834 381.976349,237.703735 385.671448,229.095856 
	C385.853882,228.419510 385.864685,227.971298 385.875458,227.523102 
	C385.410919,227.775543 384.946381,228.027985 384.218231,228.491119 
	C374.582153,240.492447 365.209686,252.283081 355.838623,264.071991 
	C350.673492,260.385956 351.594330,255.203537 352.654388,250.688675 
	C356.286316,235.220428 360.443298,219.875458 364.400055,204.483490 
	C367.902679,197.722092 370.991943,190.702835 375.009308,184.262527 
	C380.413361,175.599152 386.444214,167.318008 392.427795,159.032944 
	C393.513123,157.530197 395.556335,156.559662 397.342316,155.752945 
	C402.427185,153.456146 406.357239,155.747391 406.796112,161.277130 
	C407.532715,170.558655 404.197021,178.917175 400.345886,187.035004 
	C397.862946,192.268784 394.788910,197.222122 391.619385,202.775543 
	C386.605804,208.643570 382.547180,214.745224 377.162170,219.267471 
	C368.768158,226.316666 365.639069,235.551956 363.324097,245.789337 
	C363.082123,246.625900 363.008057,247.231964 362.934021,247.838013 
	C363.427368,247.346512 363.920715,246.855026 364.662842,246.137085 
	C370.636169,238.787689 376.304596,231.618317 382.127136,224.576385 
	C383.480774,222.939285 385.160706,221.255753 387.054047,220.473770 
	C388.805756,219.750259 391.788055,219.366104 392.890503,220.342758 
	C394.459778,221.732971 395.286621,224.455139 395.513428,226.700912 
	C395.676575,228.316193 394.402740,230.109558 393.664368,231.776749 
	C391.512177,236.636658 388.865417,241.331390 387.251770,246.360184 
	C385.759857,251.009628 385.352356,256.007050 384.467285,260.851196 
	C384.966431,261.063507 385.465607,261.275787 385.964752,261.488098 
	C387.211487,260.536835 388.627411,259.742188 389.677155,258.608521 
	C395.853424,251.938583 402.155212,245.565109 405.956390,236.847855 
	C408.215820,231.666336 412.833801,227.154190 417.285461,223.401794 
	C420.817200,220.424881 427.434998,222.050644 430.022736,225.317215 
	C433.102997,229.205475 431.629333,233.141327 429.069366,236.275208 
	C426.162689,239.833466 422.962189,244.118011 418.965179,245.609055 
	C411.662750,248.333145 410.220490,253.610550 409.618927,260.028839 
	C409.588379,260.354797 409.332123,260.687653 409.376953,260.988037 
	C409.677826,263.004120 410.031799,265.012268 410.368561,267.023010 
	C412.470673,266.400604 415.177155,266.398346 416.566467,265.044464 
	C421.593384,260.145721 426.223602,254.834030 430.919525,249.602768 
	C440.127411,239.345108 443.312561,226.030334 449.046326,213.681305 
	C449.736633,212.650436 450.285980,211.876221 451.082458,210.844452 
	C453.593201,206.429413 455.856781,202.271927 458.120361,198.114441 
	C460.413727,195.118866 462.619293,192.050552 465.024353,189.147507 
	C467.600647,186.037704 470.560120,182.890625 475.046173,184.459549 
	C479.576843,186.044083 479.048218,190.343521 479.013947,194.142471 
	C479.005066,195.130219 478.957184,196.117615 478.705200,197.741638 
	C477.338898,201.597931 476.194489,204.817749 475.050049,208.037567 
	C474.436707,208.813629 473.823364,209.589706 473.147614,210.657318 
	C464.688965,222.496918 456.153107,233.947342 447.971893,245.645813 
	C445.095551,249.758698 443.088867,254.479736 440.471375,259.550110 
	C439.901550,261.418823 439.545410,262.660492 438.981964,264.228638 
	C437.754669,268.562561 436.734680,272.570007 435.450623,276.886139 
	C434.739807,280.600952 434.109802,283.998169 433.943329,287.417969 
	C433.883087,288.655090 434.834991,290.939575 435.497223,291.005066 
	C436.858337,291.139648 439.013245,290.512390 439.646698,289.471588 
	C442.263550,285.171661 444.433990,280.600067 446.951996,275.790222 
	C448.238739,271.477539 449.341980,267.502960 450.637360,263.223633 
	C450.648193,261.805481 450.466827,260.692047 450.285461,259.578613 
M376.085724,203.387604 
	C374.856018,207.593826 373.626343,211.800064 372.396667,216.006302 
	C373.030548,216.309555 373.664429,216.612823 374.298309,216.916092 
	C377.593811,212.342819 380.889313,207.769547 384.747162,202.818222 
	C392.848694,190.130569 401.033722,177.477295 401.956360,161.692520 
	C399.684509,162.900818 398.098083,164.485764 397.008087,166.359497 
	C393.678192,172.083694 391.326385,178.587357 387.122437,183.538101 
	C382.121216,189.427673 379.637939,196.254837 376.085724,203.387604 
M454.442383,222.915726 
	C452.462341,227.504288 450.482300,232.092834 448.502258,236.681396 
	C448.869415,236.871704 449.236572,237.062027 449.603729,237.252335 
	C460.968048,224.060349 470.651367,209.897125 474.553436,192.393616 
	C470.011658,191.396347 463.424988,201.343170 454.442383,222.915726 
M419.768860,230.321213 
	C417.787750,234.432892 415.806641,238.544586 413.284149,243.779831 
	C423.827240,238.549042 427.919403,231.010803 423.638214,225.637985 
	C422.431976,227.036087 421.288513,228.361389 419.768860,230.321213 
z"/>
<path fill="#A6A6A6" opacity="1.000000" stroke="none" 
	d="
M433.401978,254.397736 
	C431.782349,261.987457 430.162720,269.577179 428.369995,277.515564 
	C417.268311,278.484955 406.334686,279.028320 395.412445,279.745239 
	C380.396027,280.730835 365.388916,281.858521 350.376343,282.903839 
	C343.255188,283.399689 336.130615,283.845703 328.534637,283.964478 
	C328.043945,282.087189 328.026184,280.559631 328.181030,278.747314 
	C338.675446,269.714508 346.788788,259.773834 346.471344,245.207260 
	C343.986694,247.433426 342.202484,250.108948 340.317444,252.711456 
	C334.829803,260.287750 329.243530,267.932892 320.634705,272.151672 
	C317.652069,273.613342 312.759277,274.607727 310.491791,273.128540 
	C308.246887,271.664124 308.190094,266.817291 307.236176,263.436371 
	C307.113007,262.999847 307.357269,262.456238 307.443909,261.964417 
	C311.061188,241.423859 318.682495,222.444885 330.017212,205.080536 
	C334.638641,205.425873 338.982056,205.496704 343.411133,205.928543 
	C342.591461,208.314316 341.686096,210.339066 340.448059,213.107803 
	C347.432434,212.189545 351.915771,208.981018 355.343079,204.022720 
	C358.049438,204.042450 360.755768,204.062164 363.931091,204.282684 
	C360.443298,219.875458 356.286316,235.220428 352.654388,250.688675 
	C351.594330,255.203537 350.673492,260.385956 355.838623,264.071991 
	C365.209686,252.283081 374.582153,240.492447 384.447815,228.776306 
	C385.127289,229.008530 385.313568,229.166275 385.499817,229.324005 
	C381.976349,237.703735 378.340973,246.038834 374.973907,254.480942 
	C373.127075,259.111420 373.892120,263.619629 377.142639,267.456909 
	C381.844727,273.007629 385.811127,272.941101 390.808563,267.688477 
	C393.107422,265.272217 395.745422,263.178619 398.772095,260.979614 
	C399.314575,261.020538 399.672699,261.026764 399.672699,261.026764 
	C399.595001,265.595367 401.814850,268.708313 405.648376,271.014252 
	C409.552612,273.362732 413.550201,274.363190 417.009796,270.844330 
	C422.285187,265.478577 427.160522,259.719543 432.651978,254.112000 
	C433.098175,254.096512 433.401947,254.397736 433.401978,254.397736 
z"/>
<path fill="#A7A7A7" opacity="1.000000" stroke="none"
	d="
M452.425079,275.953735
	C452.773071,271.848755 453.563629,267.710968 454.618347,263.288513
	C467.267609,263.003845 479.652771,263.003845 493.095367,263.003845
	C480.734283,273.127075 467.097015,275.454041 452.425079,275.953735
z"/>
<path fill="#A3A3A3" opacity="1.000000" stroke="none"
	d="
M328.008423,279.032104
	C328.026184,280.559631 328.043945,282.087189 328.073120,283.966125
	C327.557098,284.488708 327.029694,284.659882 326.213562,284.795074
	C325.066956,284.339447 324.209045,283.919769 323.404419,283.022217
	C324.974609,281.373566 326.491516,280.202820 328.008423,279.032104
z"/>
<path fill="#272727" opacity="1.000000" stroke="none" 
	d="
M328.181030,278.747314 
	C326.491516,280.202820 324.974609,281.373566 323.229004,282.784424 
	C320.987549,283.318085 318.974823,283.611664 316.501617,283.594238 
	C313.732422,282.150421 311.423706,281.017548 308.991394,279.569031 
	C299.161316,273.015717 295.728912,264.081696 297.512543,252.873199 
	C290.259583,262.498596 283.006622,272.123962 275.439819,281.919128 
	C271.372253,286.101074 267.359924,285.930725 263.166321,282.828278 
	C260.164276,278.300903 260.559113,273.337067 261.457581,268.377930 
	C262.282318,263.825653 263.340240,259.315643 264.174225,255.361557 
	C260.510529,257.608734 256.620819,261.902008 252.990295,261.692993 
	C249.245758,261.477448 245.753464,256.879944 242.257751,254.279175 
	C235.397079,263.025696 228.141174,272.701874 220.404114,281.976685 
	C215.915604,287.357269 208.918579,285.667908 207.013580,278.900665 
	C206.238007,276.145508 206.494568,273.003265 206.756226,270.079620 
	C207.021210,267.118896 207.869232,264.209930 208.468369,261.279633 
	C209.061874,258.376862 209.663467,255.475800 209.406052,252.063614 
	C206.833023,255.161270 204.294556,258.288483 201.677002,261.348053 
	C199.198120,264.245544 196.799652,267.240875 194.067413,269.884827 
	C191.011551,272.841919 187.401276,274.246307 183.165375,272.088074 
	C178.554626,269.738861 174.985596,266.246735 175.278412,260.920715 
	C175.944092,248.813644 178.831894,237.294144 187.073074,227.836746 
	C190.603897,223.784851 194.754288,220.875275 200.608734,222.505554 
	C206.628174,224.181763 208.753082,228.323013 205.964859,233.893204 
	C202.723389,240.368820 197.375290,244.921921 190.828125,247.766891 
	C188.037521,248.979507 186.571106,250.405380 186.274704,253.398895 
	C185.980698,256.368042 185.093857,259.289459 184.936142,262.256744 
	C184.849213,263.892548 185.726776,265.579590 186.169510,267.243530 
	C187.868912,266.761871 189.807434,266.643921 191.215057,265.718445 
	C193.698959,264.085388 196.228134,262.261139 198.085968,259.984528 
	C203.757858,253.034149 209.957260,246.308243 214.360092,238.587524 
	C218.566742,231.210846 220.777786,222.696152 224.021606,214.277939 
	C215.544968,214.277939 207.566895,214.277939 199.588837,214.277939 
	C199.525665,213.869110 199.462509,213.460281 199.399353,213.051453 
	C200.848465,212.499329 202.297562,211.947220 203.878937,211.054718 
	C204.411606,210.711563 204.812012,210.708771 205.940903,210.836212 
	C209.936508,210.553192 213.203613,210.139908 216.470718,209.726639 
	C216.823288,209.730423 217.175842,209.734222 218.093170,209.953766 
	C221.192596,209.543121 223.727264,208.916702 226.261932,208.290298 
	C230.338531,201.104874 234.425980,193.925568 238.487488,186.731613 
	C240.739182,182.743301 244.217636,181.274719 248.578461,182.041885 
	C250.067230,182.303818 251.429901,183.282501 253.030518,184.016373 
	C248.517761,191.413727 244.300674,198.326401 239.662308,205.769531 
	C238.888504,207.333923 238.535980,208.367905 238.107697,209.624146 
	C243.516998,209.624146 248.486267,209.624146 254.072113,209.624146 
	C253.185120,210.917130 252.499359,211.916779 251.384109,212.946487 
	C246.696762,213.222687 242.390869,213.178040 238.206619,213.869507 
	C236.701340,214.118256 235.015656,215.893219 234.236572,217.398315 
	C232.349106,221.044678 230.946213,224.941879 229.196808,228.410736 
	C228.334244,228.394943 227.622894,228.706390 226.911545,229.017822 
	C227.449326,229.649170 227.987106,230.280533 228.424988,231.266479 
	C227.926483,232.503326 227.527863,233.385574 226.955353,233.987000 
	C225.976120,234.071289 225.170792,234.436401 224.365448,234.801514 
	C225.092880,235.228394 225.820312,235.655273 226.436554,236.425308 
	C225.602081,238.234955 224.878830,239.701462 224.089020,240.861084 
	C223.606873,240.209274 223.193604,239.861252 222.763687,239.535202 
	C222.751602,239.526047 222.561584,239.751480 222.454529,239.867523 
	C223.025879,240.296997 223.597229,240.726456 224.187531,241.549713 
	C221.627777,250.874863 218.955978,259.781128 216.533478,268.754639 
	C215.899765,271.102142 216.040771,273.658783 215.825958,276.119354 
	C216.643539,276.592712 217.461121,277.066071 218.278717,277.539429 
	C219.385651,275.763641 220.332413,273.860687 221.625168,272.232422 
	C230.849564,260.613861 242.593842,250.735931 246.756149,235.638824 
	C246.843811,235.320938 246.981842,235.006668 247.150635,234.722992 
	C249.022446,231.576935 252.865097,230.887512 256.277344,233.016571 
	C259.983063,235.328735 256.751160,237.029099 255.905197,239.094833 
	C253.709915,244.455292 250.091354,249.492279 251.085693,255.873535 
	C263.573914,254.592209 273.680878,231.660492 277.717133,213.941788 
	C274.131256,214.281952 270.642761,215.092651 267.243500,214.814117 
	C262.980865,214.464798 262.060883,217.505157 260.375397,220.076584 
	C258.909973,222.312286 257.370178,224.536789 255.538040,226.455750 
	C255.249451,226.758026 252.246582,225.452225 252.223206,224.825592 
	C252.169693,223.391434 253.074310,221.861938 253.786316,220.471786 
	C255.080734,217.944458 257.407379,215.499756 254.178314,212.803177 
	C255.492096,210.715561 256.469940,208.787292 257.447784,206.859024 
	C259.385437,206.857101 261.323090,206.855179 263.757141,207.286743 
	C265.420013,210.285126 267.298004,211.325516 270.159515,210.801300 
	C272.258545,210.416779 274.432068,210.104828 276.547180,210.220673 
	C279.734528,210.395248 281.523865,209.150177 282.028595,206.021683 
	C285.525269,199.828888 288.814484,193.504074 292.626740,187.512070 
	C294.036621,185.296051 296.436279,182.967545 298.823883,182.326309 
	C301.172394,181.695572 304.077881,183.138885 306.738983,183.672119 
	C305.921021,185.723434 305.344147,187.916153 304.239624,189.799393 
	C300.977081,195.362000 297.505890,200.802231 293.796387,206.887787 
	C292.102448,210.524536 294.453217,209.874969 295.942413,209.895035 
	C299.932861,209.948792 303.924561,209.913376 309.309448,209.913376 
	C307.322571,211.392441 306.350891,212.686951 305.209869,212.859039 
	C301.662781,213.393997 298.021515,213.308960 294.477051,213.855362 
	C292.563171,214.150391 290.772186,215.242569 288.646851,215.874969 
	C285.092682,217.964203 283.567505,220.855911 284.846191,225.096252 
	C283.562744,229.210281 282.167755,233.056137 280.535706,236.702393 
	C279.818726,236.146835 279.338806,235.790878 278.858856,235.434921 
	C278.240448,237.957733 277.622070,240.480560 276.657166,243.054871 
	C275.166321,244.825119 272.440063,246.532669 276.326355,248.616394 
	C275.987854,249.681076 275.596924,250.416107 275.117676,250.852417 
	C274.612427,250.212555 274.197815,249.868286 273.766693,249.546066 
	C273.754120,249.536682 273.567108,249.760651 273.461426,249.875824 
	C274.023987,250.320129 274.586517,250.764435 275.243011,251.605270 
	C273.393066,259.904358 271.449188,267.806946 269.505280,275.709503 
	C270.092896,276.001099 270.680481,276.292694 271.268066,276.584290 
	C272.221222,275.927063 273.359100,275.431061 274.096924,274.585876 
	C278.253174,269.824860 282.475037,265.106415 286.365326,260.131683 
	C291.279144,253.848099 296.818146,247.807739 300.427582,240.806717 
	C306.026947,229.946075 310.224152,218.362549 315.015747,207.085480 
	C317.455200,203.843307 319.831207,200.550873 322.349243,197.370956 
	C325.944733,192.830475 329.433838,188.177826 333.358673,183.934036 
	C337.256622,179.719345 342.105682,176.906845 348.019073,179.509964 
	C353.900879,182.099182 356.531494,187.343246 356.907318,193.449722 
	C357.104889,196.660095 356.073029,199.946121 355.469727,203.610352 
	C351.915771,208.981018 347.432434,212.189545 340.448059,213.107803 
	C341.686096,210.339066 342.591461,208.314316 343.718689,205.760605 
	C345.963562,201.499451 348.357208,197.908417 349.854919,193.976135 
	C350.616119,191.977646 349.764038,189.364700 349.641235,187.029526 
	C347.243408,187.710999 344.069489,187.655197 342.591766,189.210770 
	C337.963745,194.082581 333.975372,199.562012 329.739166,204.806030 
	C318.682495,222.444885 311.061188,241.423859 307.443909,261.964417 
	C307.357269,262.456238 307.113007,262.999847 307.236176,263.436371 
	C308.190094,266.817291 308.246887,271.664124 310.491791,273.128540 
	C312.759277,274.607727 317.652069,273.613342 320.634705,272.151672 
	C329.243530,267.932892 334.829803,260.287750 340.317444,252.711456 
	C342.202484,250.108948 343.986694,247.433426 346.471344,245.207260 
	C346.788788,259.773834 338.675446,269.714508 328.181030,278.747314 
M324.399963,207.241333 
	C324.038513,208.060165 323.677063,208.878998 323.315613,209.697830 
	C323.607941,209.793930 323.900269,209.890015 324.192596,209.986099 
	C324.449860,208.980057 324.707123,207.974030 325.590515,206.952194 
	C325.921814,206.454025 326.253113,205.955872 326.584381,205.457703 
	C326.331238,205.362427 325.869537,205.160370 325.855591,205.187561 
	C325.549530,205.785294 325.293091,206.408401 324.399963,207.241333 
M318.649384,219.867599 
	C319.858795,217.339874 321.068207,214.812134 322.748322,211.961563 
	C322.718201,211.692047 322.688049,211.422546 322.657928,211.153015 
	C322.413330,211.408173 322.168762,211.663315 321.339081,212.271545 
	C320.233826,214.853012 319.128540,217.434479 317.479950,220.230316 
	C317.416626,220.670273 317.353302,221.110229 317.289978,221.550186 
	C317.483459,221.570740 317.676971,221.591293 317.870453,221.611862 
	C317.901001,221.063156 317.931549,220.514465 318.649384,219.867599 
M190.794479,243.047989 
	C200.179901,237.106308 202.843826,232.113190 199.541504,225.484100 
	C194.098068,230.234314 191.675964,236.364395 189.445923,243.005447 
	C189.493256,243.239212 189.540604,243.472961 189.587936,243.706726 
	C189.758362,243.506775 189.928787,243.306839 190.794479,243.047989 
z"/>
<path fill="#272727" opacity="1.000000" stroke="none" 
	d="
M185.501312,211.241608 
	C177.493118,227.487411 164.343719,237.530670 148.833755,244.938873 
	C147.230896,245.704468 145.197098,246.423828 143.565369,246.110840 
	C138.868347,245.209900 137.353043,248.080444 136.241776,251.571259 
	C134.225845,257.904022 132.015594,264.199890 130.483994,270.653015 
	C129.478653,274.888733 126.562141,275.917633 123.550804,274.903046 
	C121.864601,274.334930 120.720497,271.137817 120.062195,268.909546 
	C119.646774,267.503418 120.567268,265.696350 120.909981,264.073669 
	C122.036659,258.739014 123.173126,253.406433 124.496933,247.559326 
	C124.620255,246.775162 124.552475,246.504745 124.484695,246.234314 
	C124.295570,246.459641 124.106453,246.684982 123.917328,246.910309 
	C119.499260,252.292877 115.112923,257.701965 110.648262,263.045593 
	C108.733345,265.337494 106.864944,267.738220 104.612114,269.664642 
	C98.170639,275.172943 89.626244,272.979309 86.334702,265.130402 
	C86.017754,264.374634 85.662415,263.514221 85.728378,262.736603 
	C86.812057,249.961716 88.314026,237.329010 97.750114,227.368744 
	C101.121269,223.810333 104.863174,221.251328 110.032501,222.262955 
	C116.717728,223.571228 119.786224,228.993317 115.761475,234.412094 
	C111.925232,239.577087 106.516045,243.744934 101.246826,247.596619 
	C98.889809,249.319534 96.692657,250.162415 96.571167,253.599136 
	C96.460884,256.718903 95.314781,259.792450 95.067459,262.921295 
	C94.951805,264.384399 95.492172,266.337219 96.484222,267.279449 
	C97.044403,267.811523 99.441177,267.138977 100.464691,266.323639 
	C104.223213,263.329529 108.112572,260.367218 111.279297,256.795807 
	C115.346947,252.208374 118.660271,246.960098 122.530861,242.184784 
	C123.606041,240.858276 125.620300,240.335999 126.981491,239.182495 
	C127.830750,238.462830 128.473099,237.325180 128.848999,236.249557 
	C130.981949,230.146286 133.006516,224.005142 135.110168,217.512177 
	C137.006607,213.493744 138.856781,209.837967 140.715912,206.186752 
	C144.088043,199.564133 147.361008,192.887054 150.926468,186.370087 
	C151.663910,185.022186 153.497437,184.273941 154.825775,183.249313 
	C155.894958,184.656769 157.588791,185.951263 157.869080,187.501373 
	C158.191284,189.283188 157.617630,191.457321 156.815689,193.172363 
	C153.281982,200.729599 149.525757,208.182800 145.850143,215.673676 
	C146.303864,216.094864 146.757584,216.516037 147.211304,216.937210 
	C148.565277,215.801468 150.117798,214.833252 151.240646,213.502487 
	C157.972794,205.523666 164.462387,197.335571 171.339081,189.485489 
	C174.340500,186.059235 177.762436,182.013519 183.214920,184.789474 
	C188.289597,187.373093 189.963150,191.996872 188.942825,197.416534 
	C188.092148,201.935013 186.781036,206.366806 185.501312,211.241608 
M100.662994,243.137680 
	C109.824486,238.096832 113.347603,231.612625 109.551826,225.421402 
	C104.559448,230.498459 101.684250,236.403534 99.697716,243.117233 
	C99.784142,243.063400 99.870567,243.009583 100.662994,243.137680 
M143.976898,240.186005 
	C157.080978,235.467224 165.075821,225.348297 172.281403,213.381897 
	C176.017532,207.500320 178.885712,201.389069 177.686569,192.771683 
	C167.977295,198.539474 163.025604,207.309067 156.364532,215.291229 
	C151.722641,223.373505 147.080750,231.455780 142.161224,239.929749 
	C142.517395,240.033646 142.873550,240.137527 143.976898,240.186005 
z"/>
<path fill="#A4A4A4" opacity="1.000000" stroke="none" 
	d="
M457.680237,198.017624 
	C455.856781,202.271927 453.593201,206.429413 450.678680,210.883179 
	C440.697174,212.230469 431.366638,213.281479 422.036072,214.332504 
	C422.059692,214.606644 422.083313,214.880783 422.106934,215.154938 
	C431.039734,214.749283 439.972565,214.343628 448.905365,213.937973 
	C443.312561,226.030334 440.127411,239.345108 430.919525,249.602768 
	C426.223602,254.834030 421.593384,260.145721 416.566467,265.044464 
	C415.177155,266.398346 412.470673,266.400604 410.368561,267.023010 
	C410.031799,265.012268 409.677826,263.004120 409.376953,260.988037 
	C409.332123,260.687653 409.588379,260.354797 409.618927,260.028839 
	C410.220490,253.610550 411.662750,248.333145 418.965179,245.609055 
	C422.962189,244.118011 426.162689,239.833466 429.069366,236.275208 
	C431.629333,233.141327 433.102997,229.205475 430.022736,225.317215 
	C427.434998,222.050644 420.817200,220.424881 417.285461,223.401794 
	C412.833801,227.154190 408.215820,231.666336 405.956390,236.847855 
	C402.155212,245.565109 395.853424,251.938583 389.677155,258.608521 
	C388.627411,259.742188 387.211487,260.536835 385.964752,261.488098 
	C385.465607,261.275787 384.966431,261.063507 384.467285,260.851196 
	C385.352356,256.007050 385.759857,251.009628 387.251770,246.360184 
	C388.865417,241.331390 391.512177,236.636658 393.664368,231.776749 
	C394.402740,230.109558 395.676575,228.316193 395.513428,226.700912 
	C395.286621,224.455139 394.459778,221.732971 392.890503,220.342758 
	C391.788055,219.366104 388.805756,219.750259 387.054047,220.473770 
	C385.160706,221.255753 383.480774,222.939285 382.127136,224.576385 
	C376.304596,231.618317 370.636169,238.787689 364.434845,245.933014 
	C363.802704,245.823196 363.647369,245.691010 363.492004,245.558838 
	C365.639069,235.551956 368.768158,226.316666 377.162170,219.267471 
	C382.547180,214.745224 386.605804,208.643570 391.564636,203.126343 
	C413.873535,204.052582 435.599060,201.529633 457.680237,198.017624 
z"/>
<path fill="#282828" opacity="1.000000" stroke="none"
	d="
M64.039505,220.584320
	C60.642338,232.405899 57.220627,243.850876 53.549213,256.131042
	C63.924042,254.248596 73.727371,250.703033 83.937744,252.718521
	C84.169487,253.294174 84.401237,253.869843 84.632980,254.445496
	C81.273071,255.984558 78.002228,257.772827 74.535141,259.012054
	C66.740250,261.798126 58.733696,264.025482 51.056629,267.089844
	C48.323071,268.181000 45.758389,270.672485 44.068665,273.169128
	C41.620728,276.786011 38.529270,276.983917 35.504005,275.335571
	C32.103436,273.482788 32.854900,269.907410 34.740749,267.501648
	C36.916077,264.726624 40.008862,262.680420 42.637924,260.247162
	C43.874992,259.102234 45.674809,257.955292 45.999386,256.531158
	C48.545315,245.360474 50.795353,234.122330 53.117355,222.494568
	C56.063042,213.349579 59.406029,204.721100 61.894485,195.852859
	C64.817245,185.436844 74.054573,180.573914 83.433556,185.175812
	C88.904625,187.860260 91.755104,193.217728 90.535706,199.210144
	C89.278374,205.388947 86.848915,211.076721 81.097137,214.390182
	C79.196404,215.485153 76.681282,215.513657 73.278145,216.299820
	C75.888939,206.290909 84.248375,199.368622 81.095695,187.825378
	C78.465050,190.357224 75.823288,191.835159 74.819809,194.054001
	C70.935020,202.643845 67.572182,211.469742 64.039505,220.584320
z"/>
<path fill="#A3A3A3" opacity="1.000000" stroke="none" 
	d="
M275.205994,251.151154 
	C275.596924,250.416107 275.987854,249.681076 276.309387,248.571259 
	C276.240021,248.196472 276.156708,248.147873 276.458069,248.029251 
	C276.893311,247.284027 277.027222,246.657425 277.117493,246.022736 
	C277.073853,246.014664 277.076355,246.103348 277.345734,245.899292 
	C277.827637,244.821579 278.040131,243.947891 278.488586,242.837891 
	C279.407318,240.701706 280.090057,238.801865 280.772766,236.902008 
	C282.167755,233.056137 283.562744,229.210281 285.176453,225.040146 
	C286.572083,221.802292 287.748901,218.888702 288.925720,215.975098 
	C290.772186,215.242569 292.563171,214.150391 294.477051,213.855362 
	C298.021515,213.308960 301.662781,213.393997 305.209869,212.859039 
	C306.350891,212.686951 307.322571,211.392441 309.309448,209.913376 
	C303.924561,209.913376 299.932861,209.948792 295.942413,209.895035 
	C294.453217,209.874969 292.102448,210.524536 293.786163,207.239578 
	C300.899384,206.800278 307.702911,206.606659 314.761108,206.749268 
	C310.224152,218.362549 306.026947,229.946075 300.427582,240.806717 
	C296.818146,247.807739 291.279144,253.848099 286.365326,260.131683 
	C282.475037,265.106415 278.253174,269.824860 274.096924,274.585876 
	C273.359100,275.431061 272.221222,275.927063 271.268066,276.584290 
	C270.680481,276.292694 270.092896,276.001099 269.505280,275.709503 
	C271.449188,267.806946 273.393066,259.904358 275.191376,251.525696 
	C275.045807,251.049591 275.205994,251.151154 275.205994,251.151154 
z"/>
<path fill="#A6A6A6" opacity="1.000000" stroke="none"
	d="
M475.487610,208.062836
	C476.194489,204.817749 477.338898,201.597931 478.792938,198.185303
	C480.332825,198.314911 482.127411,198.244156 482.680695,199.038239
	C484.000793,200.932877 485.092377,203.178223 485.451691,205.414413
	C485.539978,205.964111 482.541595,207.277100 480.827332,207.769547
	C479.289673,208.211304 477.566467,208.007263 475.487610,208.062836
z"/>
<path fill="#A7A7A7" opacity="1.000000" stroke="none"
	d="
M281.569031,206.133850
	C281.523865,209.150177 279.734528,210.395248 276.547180,210.220673
	C274.432068,210.104828 272.258545,210.416779 270.159515,210.801300
	C267.298004,211.325516 265.420013,210.285126 264.125488,207.378250
	C269.701447,206.772873 275.405457,206.509460 281.569031,206.133850
z"/>
<path fill="#9D9D9D" opacity="1.000000" stroke="none"
	d="
M251.813614,212.916412
	C252.499359,211.916779 253.185120,210.917130 254.072113,209.624146
	C248.486267,209.624146 243.516998,209.624146 238.107697,209.624146
	C238.535980,208.367905 238.888504,207.333923 239.538269,206.094955
	C243.459579,206.168350 247.080124,206.518341 250.709091,206.696259
	C252.656174,206.791687 254.617767,206.591339 257.010315,206.691742
	C256.469940,208.787292 255.492096,210.715561 253.840118,212.814896
	C252.715210,212.962769 252.264404,212.939590 251.813614,212.916412
z"/>
<path fill="#A6A6A6" opacity="1.000000" stroke="none"
	d="
M216.060822,209.452911
	C213.203613,210.139908 209.936508,210.553192 206.239014,210.796570
	C209.089401,210.144180 212.370178,209.661682 216.060822,209.452911
z"/>
<path fill="#A6A6A6" opacity="1.000000" stroke="none"
	d="
M225.810181,208.189178
	C223.727264,208.916702 221.192596,209.543121 218.356934,209.933746
	C220.490112,209.161316 222.924255,208.624695 225.810181,208.189178
z"/>






<path fill="#9D9D9D" opacity="1.000000" stroke="none"
	d="
M419.956970,230.003967
	C421.288513,228.361389 422.431976,227.036087 423.638214,225.637985
	C427.919403,231.010803 423.827240,238.549042 413.284149,243.779831
	C415.806641,238.544586 417.787750,234.432892 419.956970,230.003967
z"/>
<path fill="#9D9D9D" opacity="1.000000" stroke="none"
	d="
M376.376282,203.198273
	C378.861877,203.039627 381.056854,203.070343 383.718323,203.148666
	C380.889313,207.769547 377.593811,212.342819 374.298309,216.916092
	C373.664429,216.612823 373.030548,216.309555 372.396667,216.006302
	C373.626343,211.800064 374.856018,207.593826 376.376282,203.198273
z"/>

<path fill="#9D9D9D" opacity="1.000000" stroke="none"
	d="
M399.760925,260.635681
	C399.672699,261.026764 399.314575,261.020538 399.136414,261.001526
	C398.855896,260.432037 398.753479,259.881561 398.232666,259.074127
	C397.814240,258.817169 397.491272,258.535522 397.491272,258.535522
	C398.085297,257.505066 398.679291,256.474579 399.849121,254.445206
	C399.849121,257.189148 399.849121,258.716858 399.760925,260.635681
z"/>
<path fill="#A4A4A4" opacity="1.000000" stroke="none"
	d="
M364.186066,246.159470
	C363.920715,246.855026 363.427368,247.346512 362.934021,247.838013
	C363.008057,247.231964 363.082123,246.625900 363.324097,245.789337
	C363.647369,245.691010 363.802704,245.823196 364.186066,246.159470
z"/>
<path fill="#9D9D9D" opacity="1.000000" stroke="none"
	d="
M384.711426,228.565613
	C384.946381,228.027985 385.410919,227.775543 385.875458,227.523102
	C385.864685,227.971298 385.853882,228.419510 385.671448,229.095856
	C385.313568,229.166275 385.127289,229.008530 384.711426,228.565613
z"/>
<path fill="#A6A6A6" opacity="1.000000" stroke="none"
	d="
M432.948486,253.943695
	C433.032104,253.592773 433.265381,253.394699 433.498657,253.196625
	C433.577423,253.476944 433.656189,253.757263 433.568420,254.217651
	C433.401947,254.397736 433.098175,254.096512 432.948486,253.943695
z"/>
<path fill="#9D9D9D" opacity="1.000000" stroke="none"
	d="
M397.963989,258.970428
	C397.818665,259.304047 397.523529,259.484406 397.228424,259.664734
	C397.198395,259.420074 397.168335,259.175385 397.314758,258.733124
	C397.491272,258.535522 397.814240,258.817169 397.963989,258.970428
z"/>

<path fill="#A3A3A3" opacity="1.000000" stroke="none"
	d="
M251.384109,212.946487
	C252.264404,212.939590 252.715210,212.962769 253.504181,212.974243
	C257.407379,215.499756 255.080734,217.944458 253.786316,220.471786
	C253.074310,221.861938 252.169693,223.391434 252.223206,224.825592
	C252.246582,225.452225 255.249451,226.758026 255.538040,226.455750
	C257.370178,224.536789 258.909973,222.312286 260.375397,220.076584
	C262.060883,217.505157 262.980865,214.464798 267.243500,214.814117
	C270.642761,215.092651 274.131256,214.281952 277.717133,213.941788
	C273.680878,231.660492 263.573914,254.592209 251.085693,255.873535
	C250.091354,249.492279 253.709915,244.455292 255.905197,239.094833
	C256.751160,237.029099 259.983063,235.328735 256.277344,233.016571
	C252.865097,230.887512 249.022446,231.576935 247.150635,234.722992
	C246.981842,235.006668 246.843811,235.320938 246.756149,235.638824
	C242.593842,250.735931 230.849564,260.613861 221.625168,272.232422
	C220.332413,273.860687 219.385651,275.763641 218.278717,277.539429
	C217.461121,277.066071 216.643539,276.592712 215.825958,276.119354
	C216.040771,273.658783 215.899765,271.102142 216.533478,268.754639
	C218.955978,259.781128 221.627777,250.874863 224.108154,241.475082
	C224.009811,241.006683 224.155563,241.167969 224.155563,241.167969
	C224.878830,239.701462 225.602081,238.234955 226.594360,236.239136
	C226.951981,235.229156 227.040619,234.748489 227.129242,234.267822
	C227.527863,233.385574 227.926483,232.503326 228.562424,231.077774
	C228.982498,229.935638 229.165253,229.336807 229.348022,228.737976
	C230.946213,224.941879 232.349106,221.044678 234.236572,217.398315
	C235.015656,215.893219 236.701340,214.118256 238.206619,213.869507
	C242.390869,213.178040 246.696762,213.222687 251.384109,212.946487
z"/>
<path fill="#A4A4A4" opacity="1.000000" stroke="none"
	d="
M308.991394,279.569031
	C298.294098,280.554596 287.473267,281.224518 276.203033,281.821899
	C283.006622,272.123962 290.259583,262.498596 297.512543,252.873199
	C295.728912,264.081696 299.161316,273.015717 308.991394,279.569031
z"/>
<path fill="#9D9D9D" opacity="1.000000" stroke="none"
	d="
M189.836395,242.842392
	C191.675964,236.364395 194.098068,230.234314 199.541504,225.484100
	C202.843826,232.113190 200.179901,237.106308 190.381836,243.010620
	C189.969208,242.973251 189.836395,242.842392 189.836395,242.842392
z"/>
<path fill="#343434" opacity="1.000000" stroke="none"
	d="
M288.646820,215.874969
	C287.748901,218.888702 286.572083,221.802292 285.064972,224.772003
	C283.567505,220.855911 285.092682,217.964203 288.646820,215.874969
z"/>
<path fill="#343434" opacity="1.000000" stroke="none"
	d="
M280.535736,236.702393
	C280.090057,238.801865 279.407318,240.701706 278.174652,242.813843
	C277.415466,243.016403 277.206238,243.006683 276.998474,242.998489
	C277.000000,243.000000 277.003662,243.003372 277.003662,243.003372
	C277.622070,240.480560 278.240448,237.957733 278.858856,235.434921
	C279.338806,235.790878 279.818726,236.146835 280.535736,236.702393
z"/>
<path fill="#9D9D9D" opacity="1.000000" stroke="none"
	d="
M318.023285,220.015945
	C319.128540,217.434479 320.233826,214.853012 321.720032,212.186478
	C322.100983,212.101410 322.277649,212.284424 322.277649,212.284424
	C321.068207,214.812134 319.858795,217.339874 318.320618,219.929932
	C317.991882,219.992249 318.023285,220.015945 318.023285,220.015945
z"/>
<path fill="#343434" opacity="1.000000" stroke="none"
	d="
M276.256989,248.241608
	C272.440063,246.532669 275.166321,244.825119 276.657166,243.054871
	C277.003662,243.003372 277.000000,243.000000 276.999329,243.386581
	C277.024567,244.549896 277.050476,245.326614 277.076355,246.103348
	C277.076355,246.103348 277.073853,246.014664 276.831421,246.174728
	C276.444916,246.939163 276.300812,247.543518 276.156738,248.147873
	C276.156708,248.147873 276.240021,248.196472 276.256989,248.241608
z"/>
<path fill="#343434" opacity="1.000000" stroke="none"
	d="
M229.196808,228.410736
	C229.165253,229.336807 228.982498,229.935638 228.662323,230.723175
	C227.987106,230.280533 227.449326,229.649170 226.911545,229.017822
	C227.622894,228.706390 228.334244,228.394943 229.196808,228.410736
z"/>
<path fill="#343434" opacity="1.000000" stroke="none"
	d="
M226.955353,233.987000
	C227.040619,234.748489 226.951981,235.229156 226.705551,235.895996
	C225.820312,235.655273 225.092880,235.228394 224.365448,234.801514
	C225.170792,234.436401 225.976120,234.071289 226.955353,233.987000
z"/>
<path fill="#9D9D9D" opacity="1.000000" stroke="none"
	d="
M324.964355,206.967987
	C324.707123,207.974030 324.449860,208.980057 324.192596,209.986099
	C323.900269,209.890015 323.607941,209.793930 323.315613,209.697830
	C323.677063,208.878998 324.038513,208.060165 324.698090,207.119141
	C324.996216,206.996948 324.964386,206.967987 324.964355,206.967987
z"/>
<path fill="#343434" opacity="1.000000" stroke="none"
	d="
M224.089203,241.081299
	C223.597229,240.726456 223.025879,240.296997 222.454529,239.867523
	C222.561584,239.751480 222.751602,239.526047 222.763687,239.535202
	C223.193604,239.861252 223.606873,240.209274 224.089020,240.861084
	C224.155563,241.167969 224.009811,241.006683 224.089203,241.081299
z"/>
<path fill="#343434" opacity="1.000000" stroke="none"
	d="
M275.097443,251.129166
	C274.586517,250.764435 274.023987,250.320129 273.461426,249.875824
	C273.567108,249.760651 273.754120,249.536682 273.766693,249.546066
	C274.197815,249.868286 274.612427,250.212555 275.117676,250.852417
	C275.205994,251.151154 275.045807,251.049591 275.097443,251.129166
z"/>
<path fill="#9D9D9D" opacity="1.000000" stroke="none"
	d="
M325.011719,207.011810
	C325.293091,206.408401 325.549530,205.785294 325.855591,205.187561
	C325.869537,205.160370 326.331238,205.362427 326.584381,205.457703
	C326.253113,205.955872 325.921814,206.454025 325.277466,206.960083
	C324.964386,206.967987 324.996216,206.996948 325.011719,207.011810
z"/>
<path fill="#9D9D9D" opacity="1.000000" stroke="none"
	d="
M317.976990,219.979004
	C317.931549,220.514465 317.901001,221.063156 317.870453,221.611862
	C317.676971,221.591293 317.483459,221.570740 317.289978,221.550186
	C317.353302,221.110229 317.416626,220.670273 317.751617,220.123138
	C318.023285,220.015945 317.991882,219.992249 317.976990,219.979004
z"/>
<path fill="#9D9D9D" opacity="1.000000" stroke="none"
	d="
M190.034210,243.040070
	C189.928787,243.306839 189.758362,243.506775 189.587936,243.706726
	C189.540604,243.472961 189.493256,243.239212 189.641159,242.923920
	C189.836395,242.842392 189.969208,242.973251 190.034210,243.040070
z"/>
<path fill="#9D9D9D" opacity="1.000000" stroke="none"
	d="
M322.012573,212.009949
	C322.168762,211.663315 322.413330,211.408173 322.657898,211.153015
	C322.688049,211.422546 322.718201,211.692047 322.513000,212.122986
	C322.277649,212.284424 322.100983,212.101410 322.012573,212.009949
z"/>
<path fill="#A2A2A2" opacity="1.000000" stroke="none"
	d="
M171.787674,213.873337
	C165.075821,225.348297 157.080978,235.467224 143.414276,240.028107
	C142.714066,239.759476 142.576462,239.648758 142.438858,239.538055
	C147.080750,231.455780 151.722641,223.373505 157.104065,215.139923
	C162.491638,214.616867 167.139648,214.245102 171.787674,213.873337
z"/>

<path fill="#9D9D9D" opacity="1.000000" stroke="none" 
	d="
M100.030769,243.022446 
	C101.684250,236.403534 104.559448,230.498459 109.551826,225.421402 
	C113.347603,231.612625 109.824486,238.096832 100.327736,243.064178 
	C99.992477,242.990662 100.030769,243.022446 100.030769,243.022446 
z"/>
<path fill="#9D9D9D" opacity="1.000000" stroke="none" 
	d="
M99.974731,242.973206 
	C99.870567,243.009583 99.784142,243.063400 99.864243,243.069839 
	C100.030769,243.022446 99.992477,242.990662 99.974731,242.973206 
z"/>
<path fill="#A2A2A2" opacity="1.000000" stroke="none" 
	d="
M143.040695,240.055801 
	C142.873550,240.137527 142.517395,240.033646 142.300049,239.733902 
	C142.576462,239.648758 142.714066,239.759476 143.040695,240.055801 
z"/>
<path fill="#A6A6A6" opacity="1.000000" stroke="none" 
	d="
M124.012009,247.010925 
	C124.106453,246.684982 124.295570,246.459641 124.484695,246.234314 
	C124.552475,246.504745 124.620255,246.775162 124.491287,247.179871 
	C124.294548,247.314133 124.106682,247.111526 124.012009,247.010925 
z"/>
<path fill="#272727" opacity="1.000000" stroke="none" 
	d="
M277.345734,245.899292 
	C277.050476,245.326614 277.024567,244.549896 276.997803,243.385071 
	C277.206238,243.006683 277.415466,243.016403 277.938660,243.050171 
	C278.040131,243.947891 277.827637,244.821579 277.345734,245.899292 
z"/>
<path fill="#272727" opacity="1.000000" stroke="none" 
	d="
M276.458069,248.029251 
	C276.300812,247.543518 276.444916,246.939163 276.875061,246.182800 
	C277.027222,246.657425 276.893311,247.284027 276.458069,248.029251 
z"/>
</svg>