<?xml version="1.0" ?>
<!-- Uploaded to: SVG Repo, www.svgrepo.com, Generator: SVG Repo Mixer Tools -->
<svg fill="#000000" width="800px" height="800px" viewBox="0 0 128 128" id="Layer_1" version="1.1" xml:space="preserve" xmlns="http://www.w3.org/2000/svg" xmlns:xlink="http://www.w3.org/1999/xlink">
<g>
<path d="M90.45,22.837l-0.037,0.002c-1.213-0.087-2.505-0.129-3.95-0.129c-1.059,0-2.151,0.029-3.44,0.091   c-0.121,0.006-0.232,0.041-0.337,0.085c-1.519-0.112-3.063-0.177-4.634-0.177c-20.146,0-36.536,9.52-36.536,21.222   c0,2.314,0.641,4.419,1.903,6.256c0.726,1.056,1.109,2.424,1.109,3.956V64.2c-5.864,0.002-11.449,0.774-16.6,2.295   C15.636,70.126,8,77.378,8,85.421c0,10.479,12.299,15.792,36.554,15.792c0.722,0,1.43-0.005,2.139-0.015   c1.906,2.482,4.891,4.091,8.251,4.091h8.412h37.804h8.412c5.743,0,10.416-4.681,10.416-10.435V51.567   c2-2.151,3.013-4.718,3.013-7.635C123,33.093,109.034,24.024,90.45,22.837z M44.554,99.213C28.791,99.213,10,96.82,10,85.421   c0-4.106,2.367-8.007,6.55-11.223c-0.102,1.294-0.024,3.036,0.552,5.214c0.119,0.448,0.523,0.745,0.966,0.745   c0.084,0,0.17-0.011,0.256-0.034c0.534-0.142,0.852-0.689,0.711-1.223c-0.946-3.573-0.373-5.693-0.152-6.311   c2.25-1.39,4.879-2.609,7.838-3.608c-0.601,2.528-1.251,7.31,0.539,12.6c0.141,0.417,0.53,0.68,0.947,0.68   c0.106,0,0.214-0.017,0.321-0.053c0.523-0.177,0.804-0.745,0.626-1.268c-1.98-5.848-0.639-11.132-0.165-12.661   c2.848-0.808,5.9-1.39,9.049-1.728c-0.523,3.197-1.633,12.259,1.606,17.117c0.193,0.289,0.51,0.445,0.833,0.445   c0.19,0,0.383-0.054,0.554-0.168c0.459-0.306,0.583-0.927,0.277-1.387c-2.996-4.494-1.619-13.828-1.207-16.193   c1.465-0.106,2.944-0.164,4.427-0.165v28.655c0,1.554,0.35,3.024,0.961,4.35C45.176,99.206,44.863,99.205,44.554,99.213z    M63.356,103.29h-8.412c-4.641,0-8.416-3.784-8.416-8.435V54.144c0-1.938-0.505-3.698-1.46-5.089   c-1.044-1.519-1.552-3.194-1.552-5.123c0-10.599,15.493-19.222,34.536-19.222s34.536,8.623,34.536,19.222   c0,1.928-0.507,3.604-1.552,5.123c-0.956,1.391-1.46,3.15-1.46,5.089v40.711c0,4.651-3.775,8.435-8.417,8.435H63.356z    M118.277,50.462c-0.186,0.187-0.29,0.44-0.29,0.704v43.689c0,4.651-3.775,8.435-8.416,8.435h-2.304   c2.605-1.899,4.309-4.968,4.309-8.435V54.144c0-1.532,0.383-2.9,1.109-3.956c1.263-1.837,1.903-3.942,1.903-6.256   c0-7.909-7.492-14.816-18.565-18.466C110.595,27.799,121,35.247,121,43.932C121,46.477,120.109,48.612,118.277,50.462z"/>
<path d="M66.582,57.31c0-1.654-1.346-3-3-3s-3,1.346-3,3s1.346,3,3,3S66.582,58.964,66.582,57.31z M62.582,57.31   c0-0.551,0.449-1,1-1s1,0.449,1,1s-0.449,1-1,1S62.582,57.861,62.582,57.31z"/>
<path d="M56.582,36.31c-1.654,0-3,1.346-3,3s1.346,3,3,3s3-1.346,3-3S58.236,36.31,56.582,36.31z M56.582,40.31   c-0.551,0-1-0.449-1-1s0.449-1,1-1s1,0.449,1,1S57.133,40.31,56.582,40.31z"/>
<path d="M80.582,66.31c-1.654,0-3,1.346-3,3s1.346,3,3,3s3-1.346,3-3S82.236,66.31,80.582,66.31z M80.582,70.31   c-0.551,0-1-0.449-1-1s0.449-1,1-1s1,0.449,1,1S81.133,70.31,80.582,70.31z"/>
<path d="M103.582,65.31c0-1.654-1.346-3-3-3s-3,1.346-3,3s1.346,3,3,3S103.582,66.964,103.582,65.31z M100.582,66.31   c-0.551,0-1-0.449-1-1s0.449-1,1-1s1,0.449,1,1S101.133,66.31,100.582,66.31z"/>
<path d="M87.582,82.31c-1.654,0-3,1.346-3,3s1.346,3,3,3s3-1.346,3-3S89.236,82.31,87.582,82.31z M87.582,86.31   c-0.551,0-1-0.449-1-1s0.449-1,1-1s1,0.449,1,1S88.133,86.31,87.582,86.31z"/>
<path d="M64.582,82.31c-1.654,0-3,1.346-3,3s1.346,3,3,3s3-1.346,3-3S66.236,82.31,64.582,82.31z M64.582,86.31   c-0.551,0-1-0.449-1-1s0.449-1,1-1s1,0.449,1,1S65.133,86.31,64.582,86.31z"/>
<path d="M89.582,40.31c0-1.654-1.346-3-3-3s-3,1.346-3,3s1.346,3,3,3S89.582,41.964,89.582,40.31z M85.582,40.31   c0-0.551,0.449-1,1-1s1,0.449,1,1s-0.449,1-1,1S85.582,40.861,85.582,40.31z"/>
</g>
</svg>