<?xml version="1.0" ?>
<!-- Uploaded to: SVG Repo, www.svgrepo.com, Generator: SVG Repo Mixer Tools -->
<svg fill="#000000" width="800px" height="800px" viewBox="0 0 64 64" xmlns="http://www.w3.org/2000/svg">
<title/>
<g data-name="Layer 20" id="Layer_20">
<path d="M55,16H43V1a1,1,0,0,0-1-1H38a1,1,0,0,0-1,1V16H36a1,1,0,0,0,0,2H54v2H40a1,1,0,0,0,0,2H51.921l-.945,12.337a5.96,5.96,0,0,0-3.34-.162c-.051.012-.1.027-.154.04a6.16,6.16,0,0,0-.587.188c-.066.025-.131.048-.2.075a5.885,5.885,0,0,0-.7.343,5.931,5.931,0,0,0-1.8-.7,1,1,0,1,0-.41,1.957,4.024,4.024,0,0,1,1.6.738,1,1,0,0,0,1.206,0,3.875,3.875,0,0,1,.517-.328c.051-.028.105-.048.157-.073a3.932,3.932,0,0,1,.4-.172c.056-.02.113-.034.169-.051a4.12,4.12,0,0,1,.421-.107c.051-.01.1-.016.153-.024a3.933,3.933,0,0,1,.46-.043c.041,0,.083,0,.124,0a3.934,3.934,0,0,1,.5.029l.093.011a4.144,4.144,0,0,1,.515.111l.074.02a4.019,4.019,0,0,1,.5.192c.026.012.053.02.078.033s.037.023.057.033L48.855,62H40a1,1,0,0,0,0,2h9.782a1,1,0,0,0,1-.924l2.076-27.095L53.926,22H55a1,1,0,0,0,1-1V17A1,1,0,0,0,55,16ZM41,16H39V2h2Z"/>
<path d="M39.738,34.353A1,1,0,0,0,38.977,34h-.04a.983.983,0,0,0-.417.092c-.493.226-1,.43-1.5.633V21a1,1,0,0,0-1-1H33.013V19a1,1,0,0,0-1-1H29.006V17a1,1,0,0,0-1-1H19.994a1,1,0,0,0-1,1v1H15.987a1,1,0,0,0-1,1v1H11.981a1,1,0,0,0-1,1V34.744c-.521-.208-1.04-.419-1.547-.652a1.078,1.078,0,0,0-1.219.261,1,1,0,0,0-.226.808l4.566,28a1,1,0,0,0,.987.84H34.411a1,1,0,0,0,.987-.839l4.566-28A1,1,0,0,0,39.738,34.353ZM33.013,22h2.006V35.451c-.3.1-.595.2-.9.3-.381.116-.748.22-1.108.318Zm-4.007-2h2.007V36.537c-.146.029-.286.06-.438.088l-.3.055c-.388.068-.792.134-1.228.2l-.043.005ZM25,18h2.006V37.1c-.155.017-.311.038-.467.05l-.026,0c-.274.02-.535.036-.784.05h-.022c-.246.013-.481.024-.707.031Zm-4.006,1V18H23V37.238c-.47-.015-.974-.043-1.532-.082l-.027,0c-.15-.011-.3-.031-.447-.047Zm-4.007,2V20h2.007V36.888l-.091-.01c-.432-.063-.833-.129-1.222-.2l-.282-.052c-.141-.026-.274-.055-.412-.083Zm-4.006,1h2.006V36.077c-.373-.1-.755-.209-1.155-.331-.286-.087-.567-.186-.851-.28Zm20.58,40H14.393l-.979-6H34.539Zm1.19-8h-21.5L11.67,44h8.675l2.937,3.029a1.029,1.029,0,0,0,1.436,0L27.655,44H36.33Zm2.07-12H27.232a1,1,0,0,0-.717.3L24,44.9,21.485,42.3a1,1,0,0,0-.717-.3H11.132l-.878-5.385.316.125c.357.139.718.268,1.08.394.53.185,1.063.363,1.6.526.449.136.88.26,1.3.372s.847.219,1.279.319l.1.025c.8.178,1.676.335,2.68.48.28.041.563.069.846.1l.838.092c.33.039.661.079,1,.1h0c1.009.073,1.851.107,2.668.107h.082c.79,0,1.608-.034,2.612-.106.357-.026.708-.068,1.059-.111l.8-.088c.274-.026.547-.053.817-.093,1-.146,1.881-.3,2.68-.48l.218-.054c.8-.184,1.6-.4,2.463-.662.556-.168,1.1-.351,1.65-.543.345-.122.691-.244,1.034-.377l.314-.125Z"/>
</g>
</svg>