<?xml version="1.0" encoding="iso-8859-1"?>
<!-- Uploaded to: SVG Repo, www.svgrepo.com, Generator: SVG Repo Mixer Tools -->
<svg fill="#344D59" height="800px" width="800px" version="1.1" id="Layer_1" xmlns="http://www.w3.org/2000/svg" xmlns:xlink="http://www.w3.org/1999/xlink"
	 viewBox="0 0 512.002 512.002" xml:space="preserve">
<g>
	<g>
		<g>
			<circle cx="326.422" cy="167.742" r="7.935"/>
			<circle cx="311.406" cy="120.295" r="7.935"/>
			<circle cx="229.38" cy="90.654" r="7.935"/>
			<path d="M397.639,283.757c-2.364-29.099-12.227-56.445-28.741-79.692c0.25-1.52,0.394-3.096,0.394-4.743
				c0-26.175-9.705-51.235-27.4-70.989c0.007-0.252,0.032-0.497,0.032-0.752c0-14.517-3.957-28.626-11.466-41.114
				c3.024-6.083,4.734-12.928,4.734-20.168c0-15.325-7.628-28.893-19.279-37.134c8.751-7.622,20.211-13.919,29.271-13.247
				c4.389,0.334,8.177-2.957,8.499-7.328c0.324-4.371-2.957-8.177-7.328-8.499c-16.066-1.195-34.07,9.593-45.989,22.009
				c-3.418-0.823-6.98-1.271-10.646-1.271c-17.549,0-32.796,10-40.374,24.593c-20.634,1.512-39.825,10.005-54.488,24.244
				c-15.983,15.522-24.785,36.089-24.785,57.914c0,0.254,0.024,0.5,0.032,0.752c-17.695,19.754-27.401,44.814-27.401,70.989
				c0,1.646,0.144,3.222,0.394,4.743c-16.514,23.247-26.377,50.593-28.741,79.694c-7.813,2.138-13.578,9.281-13.578,17.763v35.463
				c0,10.164,8.269,18.432,18.432,18.432h7.552l6.705,39.464c-2.401,1.365-4.023,3.94-4.023,6.898c0,3.899,2.814,7.133,6.52,7.802
				l13.322,78.417c2.363,13.909,14.318,24.004,28.425,24.004H334.29c14.108,0,26.062-10.095,28.425-24.004l13.322-78.417
				c3.706-0.669,6.52-3.903,6.52-7.802c0-2.958-1.622-5.534-4.023-6.898l6.705-39.464h7.552c10.163,0,18.432-8.269,18.432-18.432
				v-35.463C411.224,293.037,405.455,285.893,397.639,283.757z M289.709,36.7c-0.783,1.588-1.42,3.138-1.868,4.62
				c-1.271,4.194,1.1,8.624,5.296,9.895c0.766,0.232,1.541,0.343,2.302,0.343c3.406,0,6.554-2.21,7.591-5.638
				c0.445-1.47,1.224-3.083,2.268-4.774c8.409,5.227,14.021,14.545,14.021,25.154c0,16.321-13.279,29.6-29.601,29.6
				c-16.321,0-29.6-13.279-29.6-29.6C260.119,49.982,273.392,36.706,289.709,36.7z M205.913,81.053
				c10.533-10.229,23.955-16.838,38.55-19.124c-0.138,1.439-0.215,2.896-0.215,4.371c0,25.073,20.397,45.471,45.471,45.471
				c11.567,0,22.131-4.348,30.165-11.485c4.051,8.538,6.168,17.812,6.168,27.297c0,9.474-21.923,19.67-70.054,19.67
				c-48.132,0-70.054-10.196-70.054-19.67C185.943,110.084,193.035,93.56,205.913,81.053z M177.302,144.531
				c12.07,12.108,38.988,18.592,78.695,18.592s66.625-6.484,78.696-18.592c12.127,15.849,18.727,34.949,18.727,54.792
				c0,17.626-39.152,29.469-97.424,29.469s-97.424-11.843-97.424-29.469C158.574,179.479,165.175,160.378,177.302,144.531z
				 M151.497,220.031c7.289,7.46,17.971,12.301,27.591,15.368c19.004,6.059,45.599,9.262,76.91,9.262
				c31.311,0,57.907-3.203,76.91-9.262c9.619-3.067,20.302-7.908,27.591-15.368c11.794,18.837,18.993,40.322,21.138,63.058H130.36
				C132.504,260.353,139.703,238.867,151.497,220.031z M355.703,298.96v40.585h-37.948V298.96H355.703z M301.885,298.96v40.585
				h-37.948V298.96H301.885z M248.066,298.96v40.585h-37.948V298.96H248.066z M194.246,298.96v40.585h-37.948V298.96H194.246z
				 M140.429,339.544h-21.218c-1.412,0-2.562-1.149-2.562-2.561v-35.463c0-1.412,1.149-2.562,2.562-2.562h21.218V339.544z
				 M347.07,485.339c-1.063,6.253-6.437,10.791-12.779,10.791H177.712c-6.342,0-11.717-4.539-12.779-10.791l-1.11-6.532h184.356
				L347.07,485.339z M350.875,462.936H161.127l-9.042-53.222h207.831L350.875,462.936z M362.612,393.843H149.39l-6.528-38.427
				H369.14L362.612,393.843z M395.353,336.983c0,1.412-1.149,2.561-2.562,2.561h-21.218V298.96h21.218
				c1.412,0,2.562,1.149,2.562,2.562V336.983z"/>
			<circle cx="353.705" cy="240.126" r="7.935"/>
			<circle cx="328.538" cy="269.295" r="7.935"/>
			<circle cx="263.933" cy="181.539" r="7.935"/>
			<circle cx="170.072" cy="258.494" r="7.935"/>
			<circle cx="313.553" cy="193.736" r="7.935"/>
		</g>
	</g>
</g>
</svg>