<?xml version="1.0" encoding="iso-8859-1"?>
<!-- Uploaded to: SVG Repo, www.svgrepo.com, Generator: SVG Repo Mixer Tools -->
<!DOCTYPE svg PUBLIC "-//W3C//DTD SVG 1.1//EN" "http://www.w3.org/Graphics/SVG/1.1/DTD/svg11.dtd">
<svg fill="#000000" height="800px" width="800px" version="1.1" id="Capa_1" xmlns="http://www.w3.org/2000/svg" xmlns:xlink="http://www.w3.org/1999/xlink" 
	 viewBox="0 0 417 417" xml:space="preserve">
<g>
	<path d="M279.847,138.585c-0.308-0.489-0.621-1.01-0.738-1.322c0.112-0.496,0.551-1.497,0.852-2.18
		c0.955-2.171,2.142-4.874,1.497-7.854c-0.113-0.521-0.308-1.021-0.579-1.479c-0.871-1.478-1.912-2.761-2.831-3.894
		c-0.88-1.085-1.712-2.111-2.104-2.945c-0.557-1.2-1.141-2.331-1.704-3.424c-0.746-1.446-1.45-2.812-1.995-4.149
		c-0.384-0.935-0.637-2.104-0.904-3.343c-0.346-1.605-0.739-3.424-1.525-5.204c-1.233-2.798-2.727-5.69-4.307-8.34
		c-1.715-2.913-4.063-5.424-6.134-7.639l-0.095-0.101c-2.059-2.212-4.696-2.85-6.815-3.361c-0.915-0.221-1.952-0.472-2.405-0.765
		c-0.607-0.392-1.201-0.783-1.789-1.171c-1.954-1.289-3.975-2.621-6.253-3.803c-3.016-1.569-5.773-2.818-8.672-3.931
		c-0.439-0.169-1.362-1.021-2.035-1.643c-1.598-1.475-3.585-3.31-6.443-4.002c-0.747-0.18-1.505-0.379-2.27-0.58
		c-2.418-0.636-4.919-1.294-7.599-1.538c-3.281-0.295-6.786-0.539-10.176-0.32c-2.525,0.161-4.942,0.76-7.28,1.34
		c-0.888,0.22-1.776,0.441-2.66,0.63c-0.743,0.159-1.506,0.309-2.28,0.46c-2.257,0.443-4.591,0.901-6.936,1.647
		c-2.66,0.833-4.465,2.703-5.917,4.207c-0.586,0.607-1.472,1.524-1.854,1.691c-0.743,0.306-1.815,0.492-2.95,0.688
		c-1.866,0.323-3.98,0.689-6.08,1.767c-0.579,0.297-1.715,0.5-2.813,0.697c-1.922,0.343-4.313,0.771-6.458,2.133
		c-2.275,1.448-3.665,3.582-4.781,5.296c-0.528,0.812-1.186,1.821-1.621,2.168c-2.054,1.654-3.256,3.744-4.221,5.423
		c-0.525,0.913-1.021,1.776-1.478,2.258c-0.52,0.547-1.369,1.107-2.269,1.701c-1.655,1.091-3.715,2.45-5.149,4.681
		c-1.259,1.939-1.717,4.054-2.085,5.752c-0.217,1.003-0.442,2.04-0.757,2.587c-0.403,0.708-1.061,1.497-1.757,2.332
		c-1.099,1.318-2.344,2.813-3.274,4.735c-0.341,0.701-0.955,1.523-1.605,2.393c-1.074,1.438-2.292,3.067-3.079,5.122
		c-0.275,0.708-0.832,1.587-1.421,2.517c-1.008,1.593-2.151,3.398-2.747,5.613c-0.198,0.736-0.421,1.488-0.647,2.248
		c-0.506,1.705-1.018,3.458-1.367,5.264c-12.432,2.079-24.263,4.597-35.303,7.52c-0.42-4.587-1.857-9.66-4.736-15.212
		c-0.627-1.208-1.719-2.109-3.025-2.494c-1.305-0.385-2.712-0.221-3.894,0.455c-7.477,4.272-13.66,9.898-18.001,14.494
		c-3.412-10.177-11.314-21.78-26.999-25.047c-2.482-0.518-4.961,0.907-5.763,3.314c-5.673,17.02-2.102,26.437,6.185,36.154
		c-9.602,3.208-17.849,11.701-19.729,19.225c-0.52,2.08,0.356,4.223,2.112,5.377C4.098,193.181,0,202.174,0,211.547
		c0,37.776,21.962,73.143,61.84,99.586c39.246,26.022,91.33,40.354,146.66,40.354c55.329,0,107.414-14.332,146.659-40.354
		C395.038,284.69,417,249.323,417,211.547C417,178.12,363.25,149.585,279.847,138.585z M73.445,201.658
		c-0.062,0.861-0.154,2.162-0.356,2.551c-0.362,0.7-1.057,1.53-1.792,2.409c-0.401,0.479-0.816,0.992-1.23,1.526
		c-1.143-1.579-2.174-3.272-3.1-5.017c2.115-0.745,4.3-1.478,6.533-2.198C73.48,201.178,73.462,201.422,73.445,201.658z
		 M59.065,209.456c-11.445,5.278-21.788,1.976-28.474-4.575c11.523-3.183,22.387-0.448,26.521,0.873
		C57.717,206.997,58.366,208.235,59.065,209.456z M47.754,222.092c4.906,0,10.07-1.073,15.309-3.463
		c-0.209,0.44-0.402,0.896-0.558,1.381c-0.8,2.515-0.524,4.996-0.303,6.99c0.114,1.027,0.243,2.192,0.126,2.722
		c-0.551,2.485-0.227,4.816,0.035,6.689c0.151,1.079,0.293,2.098,0.216,2.789c-0.082,0.745-0.45,1.729-0.839,2.771
		c-0.668,1.787-1.499,4.01-1.429,6.546c0.074,2.828,1.163,5.121,2.038,6.963c0.24,0.505,0.466,0.987,0.646,1.424
		c-20.425-7.619-35.514-16.598-44.258-26.136c3.753-4.094,8.664-8.086,14.677-11.917C37.779,220.907,42.622,222.093,47.754,222.092z
		 M73.661,260.603c-0.082-1.463-0.19-3.096-0.577-4.894c-0.378-1.73-1.082-3.211-1.702-4.517c-0.543-1.144-1.056-2.224-1.075-2.944
		c-0.017-0.592,0.398-1.701,0.799-2.773c0.56-1.498,1.195-3.196,1.413-5.178c0.213-1.928-0.034-3.701-0.252-5.265
		c-0.173-1.244-0.337-2.417-0.174-3.153c0.472-2.151,0.247-4.186,0.047-5.98c-0.111-0.998-0.263-2.365-0.112-2.837
		c0.182-0.566,1.006-1.551,1.734-2.419c1.134-1.355,2.42-2.892,3.236-4.858c0.336-0.799,1.128-1.746,1.967-2.749
		c1.001-1.197,2.136-2.553,2.999-4.22c1.154-2.218,1.321-4.563,1.455-6.447c0.056-0.788,0.141-1.978,0.261-2.27
		c1.242-1.924,2.915-3.808,4.533-5.628l0.928-1.048c0.635-0.722,1.26-1.474,1.886-2.229c1.336-1.611,2.598-3.133,3.867-4.199
		c2.158-1.794,4.833-3.47,7.173-4.9c1.491-0.912,3.311-1.665,5.237-2.461c0.907-0.375,1.808-0.748,2.648-1.124
		c0.403-0.137,1.724-0.03,2.597,0.041c1.842,0.149,4.134,0.336,6.46-0.395c2.618-0.831,5.237-1.52,8.226-2.165
		c2.003-0.425,3.654-0.469,5.829-0.403c0.234,0.006,5.235-0.516,6.789-1.014c0.692-0.222,1.729-0.554,2.122-0.555
		c0.633,0.161,1.276,0.315,1.924,0.471c2.106,0.507,4.096,0.986,5.888,1.684l0.884,0.347c2.317,0.91,4.714,1.852,7.083,2.84
		c0.822,0.345,1.756,0.934,2.746,1.557c1.464,0.922,3.124,1.968,5.123,2.699c2.086,0.762,4.222,1.26,6.286,1.742
		c0.638,0.148,1.28,0.298,1.922,0.457c1.247,0.713,2.539,1.253,3.703,1.739c1.16,0.485,2.262,0.946,3.066,1.46
		c0.197,0.427,0.455,1.299,0.634,1.903c0.642,2.171,1.441,4.872,3.73,6.75c1.891,1.569,4.096,2.198,5.868,2.703
		c0.762,0.217,1.913,0.545,2.197,0.759c0.759,0.724,1.476,1.84,2.234,3.022c0.752,1.171,1.604,2.499,2.682,3.73
		c0.981,1.121,2.046,2.109,2.986,2.98l0.332,0.309c0.885,0.824,1.798,1.698,2.371,2.541c0.669,0.983,1.366,1.888,2.041,2.762
		c1.05,1.362,2.042,2.647,2.592,3.829c0.18,0.385,0.086,1.764,0.025,2.676c-0.105,1.557-0.225,3.322,0.178,5.201
		c0.392,1.824,1.05,3.426,1.631,4.839c0.464,1.129,0.902,2.195,1.062,3.065c0.36,1.934,0.538,3.857,0.726,5.895
		c0.063,0.683,0.126,1.363,0.195,2.038c0.243,2.393,1.374,4.376,2.281,5.97c0.311,0.544,0.755,1.325,0.93,1.775
		c-0.216,0.44-0.743,1.196-1.11,1.722c-1.007,1.445-2.261,3.244-2.768,5.49c-0.362,1.627-0.364,3.198-0.366,4.584
		c-0.001,1.208-0.003,2.458-0.287,3.104c-0.29,0.666-1.139,1.625-1.96,2.552c-0.912,1.029-1.945,2.195-2.841,3.587
		c-0.119,0.184-1.654,1.563-2.364,2.09c-1.074,0.797-2.292,1.7-3.434,2.917c-0.373,0.401-0.744,0.784-1.116,1.16
		C152.481,278.201,108.19,271.712,73.661,260.603z M215.683,278.994c-0.189-0.344-0.376-0.68-0.569-1.037
		c-0.081-0.149-0.161-0.294-0.241-0.442c0.417-0.54,0.905-1.095,1.418-1.674c1.274-1.439,2.719-3.07,3.636-5.173
		c1.12-2.549,1.124-5.073,1.126-7.1c0.001-0.958,0.002-1.864,0.121-2.398c0.106-0.377,0.774-1.336,1.217-1.971
		c1.269-1.821,2.849-4.087,2.955-7.071c0.104-2.891-1.224-5.222-2.291-7.095c-0.38-0.667-0.954-1.675-1.021-2.035
		c-0.066-0.646-0.126-1.292-0.186-1.942c-0.201-2.172-0.409-4.418-0.85-6.787c-0.345-1.888-1.037-3.57-1.646-5.054
		c-0.462-1.125-0.899-2.188-1.103-3.135c-0.108-0.505-0.04-1.527,0.021-2.428c0.146-2.165,0.329-4.859-0.938-7.574
		c-1.017-2.186-2.462-4.06-3.738-5.713c-0.612-0.793-1.189-1.542-1.69-2.279c-0.271-0.399-0.559-0.777-0.854-1.142
		c0.359-0.613,0.704-1.256,0.997-1.959c0.955-2.298,0.912-4.645,0.878-6.531c-0.015-0.809-0.037-2.032,0.069-2.347
		c0.867-1.665,2.009-3.367,3.114-5.013c0.499-0.744,0.991-1.477,1.448-2.188c0.549-0.847,1.079-1.726,1.609-2.604
		c1.06-1.759,2.062-3.421,3.138-4.64c1.86-2.113,4.244-4.152,6.34-5.903c1.406-1.18,3.183-2.216,5.064-3.313
		c0.753-0.439,1.498-0.875,2.197-1.305c0.383-0.188,1.711-0.241,2.59-0.276c1.815-0.072,4.074-0.162,6.252-1.13
		c2.485-1.108,4.98-2.044,7.865-2.95c1.948-0.618,3.962-1.031,6.093-1.467c0.729-0.149,1.465-0.3,2.214-0.462
		c2.175-0.471,3.926-1.541,5.333-2.401c0.566-0.346,1.405-0.858,1.784-0.983l0.174,0.006c2.581,0.096,5.249,0.195,7.445,0.754
		c0.133,0.033,5.567,1.622,7.788,2.489c0.871,0.338,1.887,0.993,2.962,1.687c1.315,0.849,2.806,1.81,4.546,2.541
		c1.727,0.727,3.472,1.283,5.16,1.821c1.13,0.36,3.563,1.196,3.738,1.254c3.851,1.251,7.382,3.816,10.498,7.627
		c0.502,0.613,1.061,1.146,1.667,1.586c1.975,1.433,4.211,1.914,6.008,2.301c0.797,0.172,2.002,0.431,2.304,0.638
		c0.785,0.648,1.573,1.677,2.408,2.766c0.88,1.147,1.876,2.447,3.116,3.628c1.122,1.068,2.317,1.972,3.373,2.77
		c1.162,0.878,2.259,1.708,3.004,2.563c0.879,1.004,1.783,1.896,2.658,2.759c1.158,1.141,2.251,2.219,2.961,3.26
		c0.261,0.384,0.429,1.695,0.552,2.652c0.21,1.638,0.449,3.495,1.308,5.344c0.563,1.209,1.202,2.292,1.767,3.248
		c0.771,1.305,1.436,2.431,1.648,3.4c0.336,1.574,0.589,3.202,0.834,4.777c0.177,1.144,0.353,2.273,0.556,3.381
		c0.459,2.526,1.871,4.461,3.004,6.016c0.373,0.511,0.916,1.256,1.112,1.652c-0.028,0.226-0.112,0.71-0.37,1.527
		c-1.215,3.858-1.703,8.098-1.451,12.601c0.031,0.559,0.024,0.931,0.009,1.162c-0.297,0.306-0.865,0.777-1.266,1.109
		c-1.469,1.217-3.298,2.732-4.325,5.083c-0.769,1.745-0.967,3.462-1.143,4.978c-0.118,1.016-0.251,2.166-0.539,2.612
		c-0.08,0.124-0.131,0.261-0.199,0.391C304.874,272.368,261.188,278.424,215.683,278.994z M356.79,245.958
		c-0.185-3.293,0.153-6.334,1.004-9.037c0.697-2.212,0.958-4.047,0.799-5.616c-0.281-2.732-1.788-4.799-2.999-6.459
		c-0.456-0.625-1.146-1.571-1.247-1.918c-0.188-1.026-0.349-2.067-0.512-3.122c-0.266-1.713-0.541-3.484-0.941-5.357
		c-0.559-2.558-1.756-4.584-2.812-6.371c-0.491-0.831-0.954-1.615-1.31-2.379c-0.206-0.442-0.339-1.482-0.457-2.4
		c-0.033-0.258-0.067-0.523-0.105-0.796c23.164,7.968,40.298,17.641,49.976,28.183c-9.345,10.155-25.82,19.726-47.924,27.571
		c0.028-0.127,0.057-0.235,0.088-0.307c0.191-0.312,1.026-1.004,1.578-1.461c1.658-1.374,3.927-3.254,4.607-6.309
		C356.801,249.011,356.884,247.63,356.79,245.958z M407,211.547c0,3.625-0.987,7.264-2.867,10.87
		c-11.318-11.479-29.969-21.771-54.513-30.011c-3.283-1.101-6.592-2.129-9.866-3.089c-1.419-1.627-3.056-2.866-4.502-3.958
		c-0.923-0.698-1.795-1.357-2.503-2.032c-0.676-0.644-1.357-1.532-2.079-2.473c-1.085-1.416-2.315-3.021-3.99-4.402
		c-2.118-1.737-4.578-2.267-6.554-2.692c-0.701-0.151-1.729-0.372-2.138-0.563c-4.326-5.251-9.388-8.846-15.033-10.68l-0.159-0.054
		c-1.251-0.458-2.47-0.846-3.649-1.222c-1.545-0.493-3.005-0.958-4.323-1.512c-0.933-0.392-1.938-1.04-3.001-1.726
		c-1.381-0.891-2.947-1.901-4.756-2.603c-1.494-0.583-3.06-1.125-4.66-1.627c0.051-0.664,0.142-1.377,0.241-2.124
		c0.107-0.802,0.216-1.658,0.289-2.549C356.33,159.51,407,184.838,407,211.547z M130.998,143.774
		c0.206-1.576,0.759-3.442,1.294-5.246c0.25-0.842,0.496-1.675,0.716-2.493c0.201-0.748,0.881-1.822,1.539-2.861
		c0.781-1.233,1.667-2.631,2.302-4.268c0.299-0.78,1.009-1.73,1.76-2.736c0.859-1.15,1.833-2.454,2.591-4.014
		c0.4-0.826,1.158-1.735,1.959-2.697c0.902-1.082,1.924-2.309,2.755-3.77c1.079-1.875,1.506-3.848,1.85-5.434
		c0.196-0.901,0.439-2.023,0.712-2.444c0.304-0.472,1.341-1.156,2.255-1.759c1.268-0.836,2.705-1.784,4.019-3.166
		c1.278-1.35,2.136-2.84,2.892-4.156c0.633-1.102,1.231-2.142,1.805-2.604c1.681-1.34,2.779-3.027,3.748-4.516
		c0.558-0.857,1.322-2.031,1.767-2.314c0.478-0.303,1.793-0.539,2.851-0.728c1.739-0.311,3.71-0.663,5.621-1.644
		c0.742-0.38,1.946-0.589,3.22-0.81c1.542-0.267,3.291-0.57,5.05-1.294c2.3-0.947,3.931-2.636,5.242-3.994
		c0.56-0.581,1.406-1.458,1.731-1.615c1.822-0.58,3.87-0.982,5.851-1.371c0.833-0.163,1.652-0.324,2.45-0.495
		c0.986-0.211,1.979-0.457,2.972-0.703c1.997-0.495,3.882-0.962,5.513-1.066c2.716-0.175,5.759,0.041,8.635,0.3
		c1.844,0.168,3.842,0.693,5.958,1.25c0.835,0.22,1.663,0.437,2.449,0.625c0.403,0.138,1.378,1.038,2.023,1.634
		c1.338,1.235,3.003,2.772,5.232,3.63c2.542,0.976,4.971,2.078,7.65,3.471c1.819,0.943,3.538,2.076,5.357,3.276
		c0.617,0.406,1.239,0.816,1.868,1.222c1.875,1.214,3.876,1.697,5.483,2.085c0.64,0.155,1.589,0.384,1.944,0.562l0.01,0.011
		c1.802,1.927,3.666,3.919,4.834,5.905c1.388,2.329,2.688,4.845,3.762,7.281c0.375,0.85,0.63,2.028,0.899,3.276
		c0.331,1.536,0.707,3.276,1.424,5.021c0.708,1.737,1.549,3.367,2.362,4.944c0.542,1.05,1.053,2.042,1.53,3.069
		c0.917,1.956,2.236,3.583,3.399,5.017c0.401,0.494,0.79,0.974,1.141,1.439c-0.178,0.467-0.427,1.033-0.617,1.465
		c-0.926,2.106-2.078,4.728-1.614,7.637c0.382,2.419,1.626,4.347,2.626,5.896c0.44,0.683,1.107,1.714,1.175,2.076
		c0.098,1.013-0.073,2.297-0.255,3.656c-0.058,0.437-0.117,0.896-0.172,1.365c-1.372-0.106-4.344-0.22-4.344-0.22
		c-3.006-0.083-5.326,1.315-7.184,2.45c-0.804,0.491-1.715,1.048-2.233,1.16c-0.71,0.153-1.412,0.297-2.107,0.439
		c-2.291,0.469-4.66,0.955-7.096,1.727c-3.247,1.02-6.083,2.085-8.922,3.352c-0.422,0.188-1.671,0.237-2.583,0.273
		c-2.18,0.087-4.892,0.195-7.403,1.734c-0.658,0.404-1.338,0.8-2.025,1.201c-2.059,1.202-4.394,2.563-6.445,4.284
		c-2.373,1.983-5.1,4.32-7.421,6.957c-1.672,1.893-2.959,4.028-4.203,6.093c-0.473,0.785-0.946,1.571-1.445,2.342
		c-0.432,0.671-0.888,1.35-1.35,2.039c-1.257,1.873-2.557,3.81-3.686,5.979c-1.067,2.062-1.206,4.207-1.202,6.072
		c-0.816-1.227-1.759-2.514-2.988-3.685c-1.985-1.892-4.408-2.582-6.354-3.137c-0.669-0.19-1.637-0.467-2.087-0.703
		c-0.207-0.429-0.477-1.341-0.663-1.97c-0.672-2.272-1.509-5.1-4.075-6.973c-1.771-1.28-3.676-2.077-5.358-2.779
		c-1.117-0.467-2.172-0.908-2.896-1.377c-0.45-0.291-0.945-0.508-1.464-0.643c-0.952-0.246-1.904-0.469-2.848-0.689
		c-1.857-0.434-3.611-0.843-5.128-1.397c-1-0.365-2.08-1.046-3.223-1.766c-1.23-0.775-2.625-1.654-4.217-2.322
		c-2.474-1.032-4.92-1.994-7.286-2.923l-0.897-0.353c-2.438-0.948-4.853-1.53-7.189-2.092c-0.625-0.15-1.244-0.3-1.834-0.449
		c-2.944-0.76-5.638,0.102-7.604,0.732c-0.271,0.087-0.563,0.178-0.853,0.264c-0.617-0.901-1.277-1.739-1.882-2.501
		c-0.915-1.152-2.052-2.586-2.22-3.359c-0.134-0.625,0.106-1.939,0.317-3.099c0.258-1.413,0.55-3.015,0.501-4.709
		c-0.055-1.912-0.583-3.638-1.049-5.16C131.346,145.593,130.935,144.249,130.998,143.774z M85.166,159.066
		c11.558-3.2,24.074-5.942,37.319-8.172c0.104,0.407,0.18,0.776,0.187,1.038c0.019,0.645-0.157,1.607-0.343,2.626
		c-0.359,1.971-0.807,4.423-0.255,7c0.401,1.847,1.239,3.43,2.199,4.851c-2.958,0.662-5.621,1.369-8.271,2.209
		c-0.452,0.141-1.718,0.038-2.642-0.036c-2.139-0.174-4.803-0.391-7.449,0.781c-0.791,0.353-1.606,0.689-2.426,1.028
		c-2.199,0.909-4.472,1.85-6.633,3.171c-2.638,1.613-5.676,3.52-8.367,5.757c-1.98,1.663-3.593,3.609-5.154,5.491
		c-0.563,0.679-1.123,1.356-1.696,2.006l-0.896,1.012c-0.181,0.204-0.372,0.423-0.558,0.632c-2.683,0.764-5.343,1.551-7.914,2.359
		c-3.188,1.005-6.266,2.042-9.238,3.098c-1.246-3.624-2.096-6.945-2.628-9.337c4.524-2.05,7.477-3.88,8.08-4.264
		C70.305,179.244,81.696,172.087,85.166,159.066z M37.558,168.809c0.655,0,1.296,0.056,1.907,0.167
		c2.15,0.386,4.308-0.662,5.323-2.599s0.653-4.309-0.893-5.856C33.004,149.63,28.815,143.96,31.76,131.757
		c5.986,2.349,10.521,6.752,13.511,13.137c2.933,6.262,3.267,12.169,3.269,12.211c0.096,2.137,1.542,3.974,3.595,4.574
		c2.054,0.6,4.263-0.176,5.493-1.925c0.076-0.109,6.784-9.551,16.982-16.82c6.293,18.43-9.207,27.663-11.127,28.723
		c-0.119,0.064-0.235,0.133-0.349,0.208c-0.063,0.041-6.443,4.151-15.649,6.913c-3.893,1.167-7.888,1.76-11.876,1.76h-0.001
		c-4.759,0-9.44-0.84-13.969-2.504C24.84,173.526,31.334,168.809,37.558,168.809z M22.393,188.744
		c4.315,1.179,8.731,1.793,13.215,1.794c0.001,0,0,0,0.001,0c4.961,0,9.924-0.734,14.749-2.182c0.203-0.061,0.397-0.125,0.598-0.188
		c0.426,1.79,0.982,3.893,1.692,6.182c-8.185-1.489-20.302-1.991-32.408,3.744c-1.292,0.612-2.261,1.748-2.66,3.121
		s-0.192,2.852,0.57,4.062c1.744,2.771,3.874,5.305,6.299,7.533c-4.469,3.107-8.359,6.333-11.627,9.659
		C10.967,218.859,10,215.206,10,211.547C10,203.851,14.172,196.19,22.393,188.744z M208.5,341.487
		c-93.751,0-172.522-42.768-193.196-100.063c11.403,10.488,28.981,19.891,52.075,27.643c36.414,12.219,83.859,19.296,133.6,19.929
		c2.5,0.031,11.888,0.031,11.888,0.031c48.567-0.36,95.398-6.884,131.865-18.371c25.527-8.039,44.755-17.976,56.94-29.169
		C380.963,298.75,302.216,341.487,208.5,341.487z"/>
	<path d="M296.081,193.278c-2.761,0-5,2.239-5,5s2.239,5,5,5c3.554,0,6.445,2.892,6.445,6.446c0,2.761,2.239,5,5,5s5-2.239,5-5
		C312.526,200.655,305.149,193.278,296.081,193.278z"/>
	<path d="M159.137,192.334c-2.761,0-5,2.239-5,5s2.239,5,5,5c3.554,0,6.445,2.891,6.445,6.445c0,2.761,2.239,5,5,5s5-2.239,5-5
		C175.583,199.712,168.205,192.334,159.137,192.334z"/>
	<path d="M261.82,191.617c-7.857-4.529-17.932-1.823-22.461,6.032c-1.379,2.392-0.558,5.45,1.834,6.829
		c0.787,0.454,1.646,0.669,2.493,0.669c1.729,0,3.411-0.898,4.336-2.503c1.774-3.079,5.725-4.14,8.803-2.364
		c2.392,1.378,5.45,0.557,6.829-1.834C265.033,196.054,264.212,192.996,261.82,191.617z"/>
	<path d="M195.879,120.92c0.787,0.454,1.646,0.669,2.493,0.669c1.729,0,3.411-0.898,4.336-2.503c1.776-3.079,5.725-4.14,8.803-2.364
		c2.392,1.379,5.45,0.558,6.829-1.834c1.379-2.392,0.558-5.45-1.834-6.829c-7.856-4.53-17.932-1.824-22.461,6.032
		C192.666,116.483,193.487,119.541,195.879,120.92z"/>
	<path d="M133.909,197.173c1.379-2.392,0.558-5.45-1.834-6.829c-7.857-4.53-17.932-1.824-22.461,6.032
		c-1.379,2.392-0.559,5.45,1.834,6.829c0.787,0.454,1.646,0.669,2.493,0.669c1.729,0,3.411-0.898,4.336-2.503
		c1.774-3.079,5.724-4.14,8.803-2.364C129.472,200.386,132.529,199.565,133.909,197.173z"/>
	<path d="M265.092,174.538c-2.128,1.759-2.427,4.911-0.667,7.039c1.76,2.129,4.911,2.427,7.039,0.667
		c2.74-2.266,6.811-1.879,9.075,0.859c0.989,1.196,2.417,1.814,3.856,1.813c1.122,0,2.251-0.376,3.184-1.147
		c2.128-1.76,2.426-4.912,0.667-7.04C282.467,169.743,272.08,168.759,265.092,174.538z"/>
	<path d="M130.263,211.71c-2.128,1.759-2.427,4.911-0.667,7.039c1.76,2.128,4.912,2.427,7.039,0.667
		c2.74-2.265,6.811-1.88,9.075,0.859c0.989,1.196,2.417,1.814,3.856,1.813c1.122,0,2.251-0.376,3.184-1.147
		c2.128-1.76,2.426-4.912,0.667-7.04C147.638,206.914,137.25,205.93,130.263,211.71z"/>
	<path d="M174.141,111.096c0.334,0.067,0.668,0.1,0.997,0.1c2.33,0,4.416-1.638,4.896-4.01c0.341-1.688,1.319-3.141,2.753-4.093
		c1.435-0.952,3.153-1.288,4.841-0.947c2.706,0.546,5.344-1.203,5.892-3.91c0.547-2.707-1.203-5.345-3.91-5.892
		c-8.894-1.798-17.582,3.972-19.379,12.859C169.684,107.911,171.435,110.548,174.141,111.096z"/>
	<path d="M219.026,92.294c0.008,0.001,0.014,0,0.021,0c3.548,0,6.439,2.884,6.446,6.434c0.005,2.758,2.243,4.99,5,4.99
		c0.003,0,0.006,0,0.01,0c2.761-0.005,4.996-2.248,4.99-5.01c-0.018-9.067-7.453-16.425-16.477-16.414
		c-2.761,0.005-4.996,2.248-4.991,5.009C214.031,90.062,216.269,92.294,219.026,92.294z"/>
</g>
</svg>