<?xml version="1.0" encoding="iso-8859-1"?>
<!-- Uploaded to: SVG Repo, www.svgrepo.com, Generator: SVG Repo Mixer Tools -->
<svg fill="#000000" height="800px" width="800px" version="1.1" id="Capa_1" xmlns="http://www.w3.org/2000/svg" xmlns:xlink="http://www.w3.org/1999/xlink" 
	 viewBox="0 0 480 480" xml:space="preserve">
<path id="XMLID_855_" d="M440,340h-20.293l56.483-120.028c1.458-3.098,1.229-6.726-0.604-9.616c-1.834-2.89-5.02-4.642-8.443-4.642
	h-22.857c-107.917,0-195.714-87.797-195.714-195.714c0-5.523-4.478-10-10-10c-57.619,0-111.79,22.438-152.533,63.181
	c-38.378,38.378-60.514,88.667-62.954,142.533H10c-3.424,0-6.609,1.751-8.443,4.642c-1.834,2.891-2.063,6.519-0.604,9.616
	l75.413,160.253c5.439,11.56,15.24,21.277,27.659,28.212c-9.397,7.326-15.453,18.751-15.453,31.563c0,22.056,17.944,40,40,40H410
	c38.599,0,70-31.402,70-70v-30C480,357.944,462.056,340,440,340z M188.492,26.492c12.965-3.434,26.453-5.567,40.316-6.252
	c2.495,53.775,24.623,103.972,62.944,142.293c18.146,18.146,38.958,32.662,61.549,43.181h-206.78
	c-16.822-63.272-1.413-129.732,41.885-179.122C188.435,26.559,188.464,26.526,188.492,26.492z M153.949,39.255
	c-14.103,22.049-24.142,46.596-29.463,72.329c-6.427,31.076-5.912,63.35,1.421,94.13H43.109
	C46.819,132.348,91.121,69.508,153.949,39.255z M128.571,460c-11.028,0-20-8.972-20-20s8.972-20,20-20h92.141
	c2.236,15.564,9.611,29.491,20.345,40H128.571z M340,445.858l-32.929-32.929c-3.906-3.905-10.236-3.905-14.143,0
	c-3.905,3.905-3.905,10.237,0,14.143L325.857,460H290c-27.57,0-50-22.43-50-50v-30c0-11.028,8.972-20,20-20h30
	c27.57,0,50,22.43,50,50V445.858z M350,373.975C337.74,353.635,315.432,340,290,340h-30c-22.056,0-40,17.944-40,40v20h-69.821
	c-25.363,0-47.754-11.369-55.718-28.291L25.758,225.714h425.627l-54.348,115.489C377.106,344.951,360.125,357.177,350,373.975z
	 M460,410c0,27.57-22.43,50-50,50h-35.857l32.929-32.929c3.905-3.905,3.905-10.237,0-14.143c-3.906-3.905-10.236-3.905-14.143,0
	L360,445.858V410c0-27.57,22.43-50,50-50h30c11.028,0,20,8.972,20,20V410z"/>
</svg>