<?xml version="1.0" encoding="iso-8859-1"?>
<!-- Uploaded to: SVG Repo, www.svgrepo.com, Generator: SVG Repo Mixer Tools -->
<svg fill="#344D59" height="800px" width="800px" version="1.1" id="Layer_1" xmlns="http://www.w3.org/2000/svg" xmlns:xlink="http://www.w3.org/1999/xlink"
	 viewBox="0 0 512.001 512.001" xml:space="preserve">
<g>
	<g>
		<path d="M511.968,335.414c-1.087-11.68-8.716-21.166-19.101-25.03c0.786-5.943,0.884-9.876,0.895-10.824
			c0.084-2.034,0.142-12.621-7.082-20.277c-3.159-3.347-8.948-7.339-18.594-7.339H348.965c-2.208-20.26-8.861-69.384-24.879-112.95
			c-17.703-48.152-40.596-72.568-68.042-72.568c-26.272,0-48.674,24.196-66.587,71.917c-16.77,44.683-23.859,94.289-26.132,113.6
			H44.008c-9.646,0-15.435,3.991-18.594,7.339c-7.223,7.656-7.165,18.242-7.082,20.277c0.012,0.949,0.111,4.89,0.901,10.853
			C8.008,314.648,0,325.499,0,338.188c0,16.365,13.313,29.678,29.679,29.678c3.247,0,6.371-0.531,9.298-1.5
			c13.127,21.668,31.564,39.012,54.922,51.591c2.05,1.177,14.372,7.617,38.543,7.617h247.212c24.174,0,36.496-6.441,38.544-7.617
			c23.358-12.58,41.794-29.925,54.919-51.591c2.928,0.968,6.052,1.501,9.3,1.501c6.906,0,13.632-2.426,18.939-6.829
			c3.233-2.682,3.679-7.477,0.997-10.709c-2.682-3.233-7.477-3.678-10.709-0.997c-2.621,2.175-5.813,3.324-9.228,3.324
			c-7.978,0-14.469-6.49-14.469-14.467s6.49-14.468,14.469-14.468c7.517,0,13.711,5.633,14.406,13.102
			c0.389,4.183,4.094,7.258,8.278,6.868C509.281,343.301,512.356,339.596,511.968,335.414z M256.045,101.638
			c21.736,0,39.169,24.804,52.151,58.464H205.16C218.199,126.612,235.344,101.638,256.045,101.638z M184.545,234.488h97.868
			c4.2,0,7.605-3.405,7.605-7.605s-3.405-7.605-7.605-7.605h-94.708c3.325-14.934,7.334-29.922,11.993-43.964h113.879
			c4.55,13.979,8.421,28.944,11.606,43.964h-20.461c-4.2,0-7.605,3.405-7.605,7.605s3.405,7.605,7.605,7.605h23.454
			c2.344,12.887,4.18,25.573,5.493,37.457H178.641C180.053,260.229,182.029,247.515,184.545,234.488z M29.679,352.655
			c-7.979,0-14.468-6.49-14.468-14.467s6.49-14.468,14.468-14.468c7.979,0,14.469,6.49,14.469,14.468
			C44.148,346.165,37.658,352.655,29.679,352.655z M410.881,404.62l-0.23,0.129c-0.098,0.056-10.125,5.614-30.997,5.614H132.441
			c-20.872,0-30.899-5.557-30.924-5.571l-0.302-0.171c-21.13-11.358-37.753-27.015-49.5-46.575
			c4.748-5.263,7.644-12.227,7.644-19.857c0-5.251-1.376-10.184-3.779-14.469h21.7c-2.402,4.283-3.779,9.217-3.779,14.469
			c0,16.365,13.313,29.678,29.679,29.678c16.366,0,29.679-13.313,29.679-29.678c0-5.251-1.376-10.184-3.779-14.469h27.571
			c-2.402,4.283-3.779,9.217-3.779,14.469c0,16.365,13.313,29.678,29.679,29.678s29.679-13.313,29.679-29.678
			c0-5.251-1.376-10.184-3.779-14.469h21.7c-2.402,4.283-3.779,9.217-3.779,14.469c0,16.365,13.313,29.678,29.679,29.678
			c16.366,0,29.679-13.313,29.679-29.678c0-5.251-1.376-10.184-3.779-14.469h21.7c-2.402,4.283-3.779,9.217-3.779,14.469
			c0,16.365,13.313,29.678,29.679,29.678c16.366,0,29.679-13.313,29.679-29.678c0-5.251-1.376-10.184-3.779-14.469h27.571
			c-2.402,4.283-3.779,9.217-3.779,14.469c0,16.365,13.313,29.678,29.679,29.678c16.366,0,29.679-13.313,29.679-29.678
			c0-5.251-1.376-10.184-3.779-14.469h21.7c-2.402,4.283-3.779,9.217-3.779,14.469c0,7.629,2.895,14.592,7.642,19.855
			C448.633,377.603,432.013,393.262,410.881,404.62z M88.709,338.188c0-7.978,6.49-14.468,14.468-14.468
			c7.979,0,14.469,6.491,14.469,14.468s-6.49,14.467-14.469,14.467C95.199,352.655,88.709,346.165,88.709,338.188z M168.08,338.188
			c0-7.978,6.49-14.468,14.468-14.468s14.469,6.491,14.469,14.468s-6.49,14.467-14.469,14.467S168.08,346.165,168.08,338.188z
			 M241.579,338.188c0-7.978,6.49-14.468,14.469-14.468s14.468,6.491,14.468,14.468s-6.49,14.467-14.468,14.467
			S241.579,346.165,241.579,338.188z M315.079,338.188c0-7.978,6.49-14.468,14.468-14.468c7.979,0,14.469,6.491,14.469,14.468
			s-6.49,14.467-14.469,14.467C321.568,352.655,315.079,346.165,315.079,338.188z M394.448,338.188
			c0-7.978,6.49-14.468,14.469-14.468c7.979,0,14.468,6.491,14.468,14.468s-6.49,14.467-14.468,14.467
			C400.938,352.655,394.448,346.165,394.448,338.188z M477.76,308.601c-0.365-0.054-443.435-0.09-443.435-0.09
			c-0.756-5.677-0.935-15.515,2.154-18.788c1.63-1.727,4.093-2.567,7.53-2.567h424.079c3.409,0,5.858,0.824,7.487,2.521
			C478.225,292.438,478.528,302.872,477.76,308.601z"/>
	</g>
</g>
<g>
	<g>
		<path d="M351.621,379.941h-15.97c-4.2,0-7.605,3.405-7.605,7.605s3.405,7.605,7.605,7.605h15.97c4.2,0,7.605-3.405,7.605-7.605
			S355.821,379.941,351.621,379.941z"/>
	</g>
</g>
<g>
	<g>
		<path d="M313.341,379.941h-52.224c-4.2,0-7.605,3.405-7.605,7.605s3.405,7.605,7.605,7.605h52.224c4.2,0,7.605-3.405,7.605-7.605
			S317.542,379.941,313.341,379.941z"/>
	</g>
</g>
</svg>