<svg width="800px" height="800px" viewBox="0 0 36 36" fill="none" xmlns="http://www.w3.org/2000/svg">
<g clip-path="url(#clip0_10_1642)">
<path d="M35.052 17.1637L32.2551 13.9091C31.8243 13.4077 31.3566 12.9263 30.8653 12.4783C30.6487 12.281 30.313 12.2965 30.1156 12.513C29.9182 12.7295 29.9337 13.0653 30.1502 13.2627C30.5561 13.6328 30.9431 14.0281 31.306 14.4381C31.4037 16.9929 30.8947 19.5471 29.8286 21.8686L26.0855 20.1817C25.9801 20.1342 25.8742 20.0879 25.768 20.0424C26.4162 16.6991 26.0603 13.2185 24.7603 10.0804C26.0492 10.5192 27.2802 11.1284 28.4149 11.8964C28.5061 11.9582 28.6095 11.9877 28.7119 11.9877C28.8821 11.9877 29.0493 11.906 29.1519 11.7544C29.3162 11.5117 29.2526 11.1817 29.0099 11.0175C26.72 9.46755 24.0649 8.5188 21.3155 8.2657C20.866 7.66622 20.1499 7.27768 19.3445 7.27768H15.3409C14.4497 7.27768 13.6676 7.75361 13.2353 8.46467C9.55068 9.13901 6.1886 11.065 3.74456 13.9091L0.947713 17.1637C-0.126844 18.4143 -0.305583 20.2198 0.502989 21.6568C0.986136 22.5154 1.76761 23.1574 2.70355 23.4649C2.78471 23.4916 2.8665 23.5148 2.94866 23.536C2.82313 24.6961 3.15485 25.8551 3.89337 26.7818C4.74305 27.848 6.01234 28.4596 7.37574 28.4596H14.2355C14.5682 28.6275 14.9436 28.7227 15.3409 28.7227H19.3445C19.7418 28.7227 20.1172 28.6275 20.4498 28.4596H28.5532C29.9166 28.4596 31.1859 27.848 32.0356 26.7818C32.7703 25.8598 33.1018 24.7079 32.9816 23.5538C33.0871 23.5286 33.1921 23.4991 33.2962 23.4649C34.2321 23.1574 35.0136 22.5154 35.4967 21.6568C36.3054 20.2199 36.1266 18.4142 35.052 17.1637ZM23.4259 9.69228C24.904 12.7786 25.3722 16.2805 24.7625 19.6453C23.802 19.2969 22.8133 19.0261 21.8068 18.8359V9.73998C21.8068 9.6206 21.7978 9.50336 21.7814 9.38844C22.3353 9.46033 22.8844 9.56102 23.4259 9.69228ZM12.8786 9.73998V14.8612C11.8557 13.3779 10.6032 12.054 9.1782 10.9544C10.3451 10.3549 11.5896 9.90428 12.8817 9.61884C12.8797 9.65896 12.8786 9.69936 12.8786 9.73998ZM1.42796 21.1363C0.837541 20.0871 0.968092 18.7686 1.75275 17.8555L3.26042 16.1011C3.85438 16.4248 4.4344 16.7891 4.98887 17.1882C5.0827 17.2557 5.1911 17.2883 5.29845 17.2883C5.46339 17.2883 5.62592 17.2116 5.72958 17.0676C5.90082 16.8297 5.84676 16.498 5.60894 16.3268C5.08058 15.9465 4.53035 15.5955 3.96696 15.2788L4.54945 14.6009C5.59415 13.3852 6.81851 12.3494 8.16867 11.522C10.1049 12.9311 11.7267 14.7744 12.8785 16.8779V19.1325C11.8628 19.4002 10.8673 19.7521 9.91417 20.1818L9.59505 20.3256C8.95149 19.4255 8.21955 18.5843 7.41437 17.8206C7.20174 17.6189 6.86584 17.6277 6.66411 17.8404C6.46244 18.053 6.47129 18.3889 6.68399 18.5907C7.38855 19.2589 8.03232 19.9911 8.60583 20.7715L5.11157 22.3462C3.74612 22.9619 2.16252 22.4416 1.42796 21.1363ZM4.72345 26.1204C4.16353 25.4176 3.91042 24.5397 4.00234 23.6601C4.53063 23.6506 5.05602 23.5355 5.54766 23.3139L10.3504 21.1493C11.1654 20.7819 12.0134 20.4756 12.8786 20.2331V24.7787H12.3472C12.0542 24.7787 11.8165 25.0162 11.8165 25.3094C11.8165 25.6025 12.0542 25.8401 12.3472 25.8401H12.8786V26.2602C12.8786 26.6706 12.9801 27.0575 13.1583 27.3981H7.37574C6.33734 27.3982 5.37062 26.9325 4.72345 26.1204ZM31.2056 26.1204C30.5584 26.9325 29.5917 27.3982 28.5533 27.3982H21.5271C21.6865 27.0936 21.7846 26.752 21.8034 26.3897C21.8112 26.39 21.8189 26.3909 21.8269 26.3909H22.4168C22.7099 26.3909 22.9475 26.1533 22.9475 25.8602C22.9475 25.567 22.7099 25.3295 22.4168 25.3295H21.8269C21.8201 25.3295 21.8136 25.3303 21.8069 25.3305V24.2621C21.8069 23.969 21.5693 23.7314 21.2762 23.7314C20.9831 23.7314 20.7455 23.969 20.7455 24.2621V26.2604C20.7455 27.0329 20.1171 27.6613 19.3446 27.6613H15.341C14.5685 27.6613 13.9401 27.0329 13.9401 26.2604V9.73998C13.9401 8.96749 14.5685 8.33908 15.341 8.33908H19.3446C20.1171 8.33908 20.7455 8.96749 20.7455 9.73998V22.0005C20.7455 22.2937 20.9831 22.5312 21.2762 22.5312C21.5693 22.5312 21.8069 22.2937 21.8069 22.0005V19.9168C23.1308 20.1823 24.4208 20.5957 25.6495 21.1495L30.4523 23.314C30.922 23.5257 31.4224 23.6402 31.9267 23.6583C32.019 24.5385 31.7659 25.4171 31.2056 26.1204ZM34.5718 21.1363C33.8373 22.4416 32.2539 22.9619 30.8882 22.3463L30.7952 22.3044C31.7519 20.2189 32.2863 17.9576 32.3672 15.6679L34.247 17.8555C35.0317 18.7686 35.1622 20.0871 34.5718 21.1363Z" fill="#344D59"/>
<path d="M23.9899 21.6411H23.4786C23.1855 21.6411 22.9479 21.8787 22.9479 22.1718C22.9479 22.465 23.1855 22.7025 23.4786 22.7025H23.9899C24.283 22.7025 24.5206 22.465 24.5206 22.1718C24.5206 21.8787 24.283 21.6411 23.9899 21.6411Z" fill="#344D59"/>
<path d="M26.8615 23.8844H25.9962C25.7031 23.8844 25.4655 24.1219 25.4655 24.4151C25.4655 24.7083 25.7031 24.9458 25.9962 24.9458H26.8615C27.1546 24.9458 27.3922 24.7083 27.3922 24.4151C27.3922 24.1219 27.1546 23.8844 26.8615 23.8844Z" fill="#344D59"/>
<path d="M12.4455 23.1313C12.4455 22.8382 12.2078 22.6006 11.9148 22.6006H10.9708C10.6777 22.6006 10.4401 22.8382 10.4401 23.1313C10.4401 23.4245 10.6777 23.662 10.9708 23.662H11.9148C12.2078 23.662 12.4455 23.4245 12.4455 23.1313Z" fill="#344D59"/>
<path d="M8.64992 24.7786H6.95855C6.66547 24.7786 6.42786 25.0162 6.42786 25.3093C6.42786 25.6025 6.66547 25.84 6.95855 25.84H8.64992C8.94301 25.84 9.18062 25.6025 9.18062 25.3093C9.18062 25.0162 8.94301 24.7786 8.64992 24.7786Z" fill="#344D59"/>
</g>
<defs>
<clipPath id="clip0_10_1642">
<rect width="36" height="36" fill="344D59"/>
</clipPath>
</defs>
</svg>
