<svg width="800px" height="800px" viewBox="0 0 36 36" fill="none" xmlns="http://www.w3.org/2000/svg">
<g clip-path="url(#clip0_62_255)">
<path d="M17.1856 31.4859C19.6996 31.4859 21.7449 29.4406 21.7449 26.9265C21.7449 24.4125 19.6996 22.3672 17.1856 22.3672C14.6715 22.3672 12.6262 24.4126 12.6262 26.9265C12.6262 29.4405 14.6715 31.4859 17.1856 31.4859ZM17.1856 23.4239C19.1169 23.4239 20.6882 24.9952 20.6882 26.9265C20.6882 28.8578 19.1169 30.4291 17.1856 30.4291C15.2542 30.4291 13.683 28.8579 13.683 26.9265C13.683 24.9952 15.2542 23.4239 17.1856 23.4239Z" fill="black"/>
<path d="M34.6723 2.16288H34.0382H3.77703C3.76654 2.16288 3.75794 2.15435 3.75794 2.14386V1.28353C3.75794 1.2731 3.76647 1.26451 3.77689 1.26444L34.6758 1.05675C34.9676 1.05478 35.2026 0.816663 35.2006 0.524862C35.1987 0.234259 34.9625 1.52588e-05 34.6723 1.52588e-05C34.6711 1.52588e-05 34.6699 1.52588e-05 34.6688 1.52588e-05L3.76978 0.2077C3.18061 0.211715 2.70127 0.694293 2.70127 1.28353V2.14386C2.70127 2.15027 2.70212 2.15647 2.70226 2.16288H1.8749C1.28172 2.16288 0.799072 2.64553 0.799072 3.23871V4.15455C0.799072 4.744 1.27862 5.22658 1.86807 5.23031L5.80851 5.25532V8.464C5.80851 8.7558 6.04508 8.99237 6.33688 8.99237C6.62868 8.99237 6.86525 8.7558 6.86525 8.464V3.21962H8.05753V11.9816C7.62765 12.243 7.22806 12.5496 6.86525 12.8943V10.7158C6.86525 10.424 6.62868 10.1874 6.33688 10.1874C6.04508 10.1874 5.80851 10.424 5.80851 10.7158V14.1659C5.17489 15.1415 4.77762 16.2841 4.69802 17.5118H4.11463C3.6572 17.5118 3.24169 17.7448 3.00315 18.1352C2.76461 18.5256 2.74678 19.0016 2.95545 19.4086L3.35039 20.179V22.7805C3.35039 27.3276 6.14744 31.2331 10.111 32.8687V34.4939C10.111 35.3245 10.7867 36.0002 11.6172 36.0002H22.7537C23.5842 36.0002 24.2599 35.3245 24.2599 34.4939V32.8687C28.2235 31.2331 31.0205 27.3276 31.0205 22.7805V20.179L31.4153 19.4086C31.624 19.0016 31.6062 18.5256 31.3677 18.1352C31.1292 17.7448 30.7137 17.5118 30.2562 17.5118H29.7916C29.715 16.3373 29.345 15.2035 28.7089 14.2082C28.5517 13.9623 28.2249 13.8904 27.9792 14.0475C27.7333 14.2046 27.6613 14.5314 27.8185 14.7772C28.3457 15.6023 28.6575 16.5395 28.7323 17.5117H27.5355C27.3043 15.1045 25.2708 13.2157 22.8039 13.2157C20.337 13.2157 18.3036 15.1045 18.0724 17.5117H16.8769C17.1117 14.4463 19.6793 12.0233 22.8039 12.0233C24.1208 12.0233 25.3696 12.4473 26.4153 13.2493C26.6468 13.4269 26.9784 13.3832 27.1561 13.1516C27.3337 12.9201 27.29 12.5884 27.0584 12.4108C26.0597 11.6448 24.9036 11.1716 23.675 11.02C23.1601 9.83959 22.3348 8.82808 21.2716 8.08118C20.0898 7.25115 18.7011 6.81239 17.2556 6.81239C16.783 6.81239 16.3166 6.86015 15.8613 6.95237V5.31767L28.3107 5.39791H28.3142C28.6043 5.39791 28.8406 5.16359 28.8425 4.87292C28.8443 4.58112 28.6093 4.34307 28.3175 4.34117L15.8612 4.26093V3.21962H34.038H34.672C34.9638 3.21962 35.2004 2.98305 35.2004 2.69125C35.2004 2.39945 34.9641 2.16288 34.6723 2.16288ZM12.5556 8.62885C12.0962 9.04464 11.6962 9.5168 11.3634 10.0349V3.21962H12.5556V8.62885ZM5.80851 4.19844L1.87476 4.1735C1.86434 4.17343 1.85581 4.16491 1.85581 4.15448V3.23864C1.85581 3.22814 1.86441 3.21955 1.8749 3.21955H5.80851V4.19844ZM9.11434 3.21962H10.3066V11.1032C9.89513 11.1857 9.49653 11.3042 9.11434 11.4556V3.21962ZM11.6857 12.0233C13.6625 12.0233 15.529 13.0305 16.6287 14.6699C16.3877 15.1191 16.1943 15.5973 16.0553 16.0981C15.3271 14.4047 13.6429 13.2157 11.6857 13.2157C9.21889 13.2157 7.18544 15.1045 6.95422 17.5117H5.75877C5.99358 14.4463 8.5611 12.0233 11.6857 12.0233ZM19.0452 12.0632C18.5797 11.5853 17.9421 11.3105 17.2557 11.3105C16.562 11.3105 15.9194 11.5901 15.453 12.0762C15.1089 11.8562 14.7463 11.666 14.3694 11.5084C15.0655 10.6388 16.1243 10.1182 17.2557 10.1182C18.3814 10.1182 19.4358 10.6342 20.1322 11.4967C19.752 11.6542 19.3884 11.844 19.0452 12.0632ZM14.1481 17.5117C13.9322 16.3485 12.9106 15.4647 11.6857 15.4647C10.4609 15.4647 9.43932 16.3485 9.22347 17.5117H8.01787C8.24422 15.6885 9.80221 14.2724 11.6857 14.2724C13.5693 14.2724 15.1273 15.6885 15.3537 17.5117H14.1481ZM13.0587 17.5117H10.3129C10.5051 16.9371 11.0473 16.5214 11.6857 16.5214C12.3242 16.5214 12.8664 16.9371 13.0587 17.5117ZM23.2031 34.4938C23.2031 34.7416 23.0015 34.9433 22.7537 34.9433H11.6172C11.3694 34.9433 11.1677 34.7416 11.1677 34.4938V33.2418C12.1481 33.532 13.1853 33.6885 14.2585 33.6885H20.1123C21.1855 33.6885 22.2228 33.532 23.2031 33.2418V34.4938ZM30.4661 18.6861C30.4929 18.7301 30.5298 18.8197 30.475 18.9264L30.0219 19.8103C30.0045 19.8443 29.9915 19.88 29.9818 19.9166H9.64419C9.35239 19.9166 9.11582 20.1532 9.11582 20.445C9.11582 20.7368 9.35239 20.9733 9.64419 20.9733H29.9638V22.7803C29.9638 28.2124 25.5444 32.6318 20.1124 32.6318H14.2586C8.82656 32.6318 4.4072 28.2124 4.4072 22.7803V20.9733H7.45293C7.74474 20.9733 7.9813 20.7368 7.9813 20.445C7.9813 20.1532 7.74474 19.9166 7.45293 19.9166H4.3891C4.37944 19.88 4.36634 19.8443 4.34901 19.8103L3.89588 18.9264C3.84121 18.8197 3.87806 18.7301 3.9049 18.6861C3.93174 18.6422 3.99465 18.5685 4.1147 18.5685H30.2564C30.3763 18.5685 30.4393 18.6422 30.4661 18.6861ZM21.4312 17.5117C21.6234 16.9371 22.1656 16.5214 22.804 16.5214C23.4425 16.5214 23.9847 16.9371 24.1769 17.5117H21.4312ZM22.804 14.2723C24.6876 14.2723 26.2456 15.6884 26.472 17.5117H25.2664C25.0505 16.3484 24.0289 15.4646 22.804 15.4646C21.5792 15.4646 20.5576 16.3485 20.3418 17.5117H19.1362C19.3625 15.6884 20.9205 14.2723 22.804 14.2723ZM17.2442 13.7168C16.964 13.3525 16.6502 13.0188 16.3085 12.7191C16.5674 12.4943 16.9 12.3672 17.2557 12.3672C17.6045 12.3672 17.9318 12.4898 18.1888 12.7071C17.8419 13.0117 17.5254 13.35 17.2442 13.7168ZM22.4762 10.9745C22.0364 10.9948 21.6071 11.056 21.1919 11.1542C20.3109 9.85404 18.8385 9.06148 17.2558 9.06148C15.6692 9.06148 14.1944 9.85721 13.3141 11.1623C12.8968 11.0612 12.4686 10.9984 12.0343 10.9764C13.0665 9.09072 15.0752 7.8692 17.2557 7.8692C19.4358 7.86913 21.4438 9.0898 22.4762 10.9745ZM14.8047 7.25558C14.3918 7.41043 13.9929 7.60501 13.6125 7.83799V3.21962H14.8047V7.25558Z" fill="black"/>
<path d="M34.6759 4.38128L30.5697 4.35521C30.5685 4.35521 30.5674 4.35521 30.5663 4.35521C30.276 4.35521 30.0398 4.58959 30.038 4.88027C30.0361 5.17207 30.2712 5.41011 30.563 5.41195L34.6692 5.43801H34.6726C34.9629 5.43801 35.1991 5.20363 35.2009 4.91295C35.2028 4.62123 34.9677 4.38318 34.6759 4.38128Z" fill="black"/>
</g>
<defs>
<clipPath id="clip0_62_255">
<rect width="400" height="400" fill="white"/>
</clipPath>
</defs>
</svg>
