<?xml version="1.0" encoding="iso-8859-1"?>
<!-- Uploaded to: SVG Repo, www.svgrepo.com, Generator: SVG Repo Mixer Tools -->
<svg fill="#000000" height="800px" width="800px" version="1.1" id="Layer_1" xmlns="http://www.w3.org/2000/svg" xmlns:xlink="http://www.w3.org/1999/xlink" 
	 viewBox="0 0 509.443 509.443" xml:space="preserve">
<g>
	<g>
		<g>
			<path d="M378.05,211.403c-31.234,0-62.853,10.718-62.853,31.201s31.618,31.201,62.853,31.201
				c31.234,0,62.853-10.718,62.853-31.201S409.284,211.403,378.05,211.403z M378.05,257.67c-30.823,0-46.719-10.561-46.719-15.066
				c0-4.505,15.895-15.066,46.719-15.066c30.823,0,46.719,10.561,46.719,15.066C424.767,247.11,408.873,257.67,378.05,257.67z"/>
			<path d="M253.681,126.246c31.234,0,62.853-10.718,62.853-31.201s-31.619-31.201-62.853-31.201
				c-31.234,0-62.853,10.718-62.853,31.201S222.447,126.246,253.681,126.246z M253.681,79.98c30.823,0,46.719,10.561,46.719,15.066
				c0,4.506-15.896,15.065-46.719,15.065c-30.823,0-46.719-10.561-46.719-15.066S222.858,79.98,253.681,79.98z"/>
			<path d="M131.394,211.403c-31.234,0-62.853,10.718-62.853,31.201s31.619,31.201,62.853,31.201s62.853-10.718,62.853-31.201
				S162.628,211.403,131.394,211.403z M131.394,257.67c-30.823,0-46.719-10.561-46.719-15.066c0-4.505,15.895-15.066,46.719-15.066
				c30.823,0,46.719,10.561,46.719,15.066S162.217,257.67,131.394,257.67z"/>
			<path d="M509.443,281.417c0-0.711-0.095-1.42-0.281-2.107l-19.668-72.687c-3.991-15.741-19.532-28.533-34.683-28.533h-69.737
				v-40.84c0-0.381-0.035-0.753-0.087-1.12c0.052-0.751,0.087-1.507,0.087-2.272c0-0.711-0.095-1.42-0.281-2.107l-19.668-72.687
				c-3.991-15.741-19.532-28.534-34.683-28.534H176.916c-15.518,0-30.413,14.587-34.59,28.209c-0.026,0.085-0.051,0.171-0.073,0.257
				l-19.686,72.753c-0.186,0.687-0.281,1.396-0.281,2.107c0,0.765,0.036,1.521,0.087,2.272c-0.052,0.367-0.087,0.739-0.087,1.12
				v40.84H54.63c-15.516,0-30.412,14.587-34.59,28.209c-0.026,0.086-0.051,0.172-0.073,0.258L0.281,279.31
				C0.095,279.997,0,280.706,0,281.417c0,0.765,0.036,1.521,0.087,2.272C0.036,284.056,0,284.428,0,284.809v77.099v12.528v73.901
				c0,16.859,12.732,30.576,28.382,30.576h46.991c4.456,0,8.067-3.611,8.067-8.067c0-4.456-3.611-8.067-8.067-8.067H28.382
				c-6.753,0-12.247-6.477-12.247-14.441v-8.134c3.71,1.92,7.864,2.997,12.247,2.997h130.59c4.455,0,8.067-3.611,8.067-8.067
				c0-4.456-3.612-8.067-8.067-8.067H28.382c-6.753,0-12.247-6.477-12.247-14.441v-10.611c3.71,1.92,7.864,2.997,12.247,2.997
				h48.227c4.456,0,8.067-3.611,8.067-8.067c0-4.456-3.611-8.067-8.067-8.067H28.382c-6.753,0-12.247-6.479-12.247-14.441v-12.528
				v-52.912c2.751,1.424,5.748,2.376,8.901,2.777c0.059,0.008,0.117,0.017,0.176,0.025c0.434,0.052,0.87,0.091,1.309,0.123
				c0.098,0.008,0.195,0.018,0.292,0.024c0.52,0.03,1.042,0.048,1.568,0.048h206.026c0.527,0,1.05-0.018,1.569-0.048
				c0.095-0.005,0.187-0.016,0.281-0.023c0.444-0.031,0.885-0.071,1.323-0.124c0.054-0.006,0.108-0.015,0.161-0.023
				c3.156-0.4,6.157-1.353,8.912-2.778v52.912v12.528v73.901c0,7.963-5.493,14.441-12.247,14.441H102.157
				c-4.456,0-8.067,3.611-8.067,8.067s3.611,8.067,8.067,8.067h132.251c7.958,0,15.156-3.551,20.314-9.254
				c5.159,5.703,12.357,9.254,20.314,9.254h46.992c4.456,0,8.067-3.611,8.067-8.067s-3.611-8.067-8.067-8.067h-46.992
				c-6.753,0-12.247-6.477-12.247-14.441v-8.134c3.71,1.92,7.864,2.997,12.247,2.997h130.59c4.456,0,8.067-3.611,8.067-8.067
				s-3.611-8.067-8.067-8.067H275.035c-6.753,0-12.247-6.477-12.247-14.441v-10.611c3.71,1.92,7.864,2.997,12.247,2.997h48.228
				c4.456,0,8.067-3.611,8.067-8.067c0-4.456-3.611-8.067-8.067-8.067h-48.228c-6.753,0-12.247-6.479-12.247-14.441v-12.528v-52.912
				c2.755,1.425,5.756,2.378,8.912,2.778c0.054,0.008,0.108,0.015,0.161,0.023c0.438,0.053,0.879,0.092,1.323,0.124
				c0.094,0.006,0.187,0.017,0.281,0.023c0.52,0.03,1.042,0.048,1.569,0.048H481.06c0.527,0,1.05-0.018,1.569-0.048
				c0.095-0.005,0.188-0.017,0.283-0.024c0.443-0.031,0.883-0.071,1.32-0.124c0.056-0.006,0.111-0.016,0.166-0.023
				c3.156-0.4,6.156-1.353,8.909-2.778v139.341c0,7.963-5.494,14.441-12.248,14.441H348.811c-4.456,0-8.067,3.611-8.067,8.067
				s3.611,8.067,8.067,8.067h132.25c15.65,0,28.383-13.716,28.383-30.576V284.809c0-0.381-0.035-0.753-0.087-1.12
				C509.409,282.938,509.443,282.182,509.443,281.417z M157.787,63.355c2.605-8.287,12.22-16.689,19.129-16.689h153.527
				c7.051,0,16.697,7.015,19.054,16.404c0.012,0.047,0.024,0.096,0.038,0.143l19.379,71.617c-0.02,0.36-0.061,0.714-0.104,1.067
				c-0.015,0.087-0.036,0.172-0.047,0.26c-0.828,6.054-4.901,10.805-9.876,11.903c-0.038,0.009-0.076,0.012-0.114,0.019
				c-0.313,0.066-0.629,0.12-0.949,0.156c-0.372,0.04-0.748,0.065-1.129,0.065H150.667c-0.381,0-0.757-0.025-1.129-0.065
				c-0.316-0.035-0.627-0.09-0.937-0.154c-0.042-0.009-0.085-0.013-0.127-0.023c-4.975-1.098-9.046-5.848-9.874-11.901
				c-0.012-0.088-0.033-0.172-0.047-0.259c-0.043-0.354-0.084-0.708-0.104-1.068L157.787,63.355z M246.523,283.455
				c-0.015,0.087-0.036,0.171-0.047,0.259c-0.828,6.053-4.9,10.804-9.875,11.901c-0.04,0.009-0.081,0.013-0.12,0.022
				c-0.311,0.065-0.625,0.119-0.942,0.155c-0.372,0.04-0.749,0.065-1.129,0.065H28.382v0.001c-0.381,0-0.757-0.025-1.129-0.065
				c-0.318-0.036-0.633-0.09-0.943-0.155c-0.04-0.009-0.08-0.012-0.119-0.02c-4.976-1.098-9.047-5.849-9.875-11.902
				c-0.012-0.088-0.033-0.173-0.047-0.26c-0.043-0.353-0.084-0.707-0.104-1.067l19.34-71.475
				c2.606-8.287,12.22-16.691,19.128-16.691h75.722h77.806c7.05,0,16.695,7.015,19.053,16.404c0.013,0.048,0.024,0.096,0.038,0.143
				l19.379,71.617C246.607,282.749,246.565,283.103,246.523,283.455z M254.722,250.529l-11.881-43.908
				c-3.993-15.74-19.533-28.532-34.682-28.532h-69.738v-16.653c2.755,1.425,5.756,2.378,8.912,2.778
				c0.054,0.008,0.108,0.015,0.162,0.023c0.438,0.053,0.879,0.092,1.323,0.124c0.094,0.006,0.187,0.017,0.281,0.023
				c0.52,0.03,1.042,0.048,1.569,0.048h206.025c0.527,0,1.05-0.018,1.569-0.048c0.095-0.005,0.188-0.017,0.283-0.024
				c0.443-0.031,0.883-0.071,1.32-0.124c0.056-0.006,0.111-0.015,0.166-0.023c3.155-0.4,6.156-1.353,8.909-2.778v16.653h-67.655
				c-15.518,0-30.413,14.587-34.59,28.211c-0.026,0.085-0.051,0.171-0.073,0.257L254.722,250.529z M493.178,283.455
				c-0.015,0.087-0.035,0.172-0.047,0.26c-0.828,6.054-4.901,10.805-9.876,11.903c-0.038,0.008-0.075,0.012-0.113,0.019
				c-0.314,0.066-0.629,0.12-0.95,0.156c-0.372,0.04-0.749,0.065-1.129,0.065H275.035v-0.001c-0.381,0-0.757-0.025-1.129-0.065
				c-0.317-0.036-0.631-0.09-0.942-0.155c-0.04-0.009-0.081-0.012-0.12-0.021c-4.975-1.098-9.046-5.848-9.875-11.901
				c-0.012-0.088-0.033-0.172-0.047-0.259c-0.042-0.354-0.084-0.708-0.104-1.068l19.341-71.476
				c2.605-8.286,12.219-16.688,19.128-16.688h75.722h77.805c7.051,0,16.697,7.015,19.054,16.404
				c0.012,0.047,0.024,0.096,0.038,0.143l19.379,71.617C493.261,282.749,493.219,283.103,493.178,283.455z"/>
		</g>
	</g>
</g>
</svg>