<?xml version="1.0" encoding="utf-8"?>

<!DOCTYPE svg PUBLIC "-//W3C//DTD SVG 1.1//EN" "http://www.w3.org/Graphics/SVG/1.1/DTD/svg11.dtd">
<!-- Uploaded to: SVG Repo, www.svgrepo.com, Generator: SVG Repo Mixer Tools -->
<svg height="800px" width="800px" version="1.1" id="_x32_" xmlns="http://www.w3.org/2000/svg" xmlns:xlink="http://www.w3.org/1999/xlink" 
	 viewBox="0 0 512 512"  xml:space="preserve">
<style type="text/css">
	.st0{fill:#000000;}
</style>
<g>
	<path class="st0" d="M426.083,189.826c14.682-14.659,23.81-35.083,23.803-57.47c-0.016-44.894-36.372-81.25-81.265-81.265
		c-7.561,0-14.887,1.106-21.864,3.061c-7.273-13.416-17.356-25.053-29.552-34.053C300.113,7.484,278.856-0.008,256,0
		c-22.856-0.008-44.113,7.484-61.204,20.098c-12.197,9-22.28,20.637-29.561,34.053c-6.969-1.955-14.288-3.061-21.848-3.061
		c-44.894,0.008-81.265,36.371-81.273,81.265c-0.007,22.387,9.121,42.811,23.803,57.47c11.803,11.819,27.387,19.947,44.689,22.697
		v78.212c-13.19,21.94-20.886,47.523-20.886,74.978C109.72,446.5,175.212,512,256,512c80.78,0,146.273-65.5,146.273-146.288
		c0-27.455-7.697-53.038-20.886-74.978v-78.212C398.697,209.78,414.28,201.651,426.083,189.826z M256,476.59
		c-59.765,0-108.515-47.59-110.666-106.826c22.424-2.272,74.432-12.999,116.303-62.788h4.181l-3.924,0.69
		c30.848,32.56,80.652,54.992,104.636,64.515C363.144,430.296,314.932,476.59,256,476.59z M110.538,99.515
		c8.462-8.424,19.962-13.59,32.848-13.598c8.212,0.008,15.818,2.121,22.53,5.856l18.44,10.273l6.575-20.06
		c4.478-13.66,13.174-25.485,24.538-33.856c11.371-8.371,25.288-13.296,40.53-13.296c15.242,0,29.152,4.924,40.53,13.296
		c11.356,8.371,20.053,20.197,24.522,33.856l6.576,20.068l18.447-10.28c6.728-3.735,14.326-5.848,22.546-5.856
		C381.5,85.924,393,91.091,401.462,99.515c8.424,8.455,13.591,19.963,13.598,32.841c-0.008,12.871-5.174,24.379-13.598,32.833
		c-8.462,8.439-19.962,13.599-32.841,13.607c-0.667,0.007-1.75-0.068-3.356-0.19l-18.712-1.401v102.598H165.439V177.197
		l-18.72,1.409c-1.591,0.122-2.682,0.197-3.334,0.19c-12.886-0.008-24.386-5.168-32.848-13.607
		c-8.424-8.454-13.591-19.962-13.598-32.833C96.947,119.478,102.114,107.97,110.538,99.515z"/>
</g>
</svg>