<svg width="36" height="36" viewBox="0 0 36 36" fill="none" xmlns="http://www.w3.org/2000/svg">
<path d="M9.56251 1.12431C9.25314 1.12493 9.00234 1.37524 9.0011 1.68462V5.62542H6.18641C6.16847 5.62457 6.15052 5.62457 6.13258 5.62542C5.8444 5.6537 5.62479 5.89616 5.62501 6.18572V11.2482H4.50001C4.16134 11.2494 3.90048 11.5474 3.94411 11.8832L6.75551 33.2549C6.855 34.0921 7.50863 34.8743 8.43641 34.8743H27.5625C28.4879 34.8743 29.1411 34.0939 29.2434 33.2593L32.0592 11.8832C32.103 11.5456 31.8393 11.2467 31.4989 11.2482H30.375V6.18683C30.375 5.87618 30.1232 5.62436 29.8125 5.62432H27V1.68682C27 1.37617 26.7482 1.12433 26.4375 1.12431H23.0625C22.7519 1.12433 22.5 1.37617 22.5 1.68682V3.37428H19.6875C19.3769 3.3743 19.125 3.62614 19.125 3.93679V5.62432H16.8739V3.93569C16.8728 3.62674 16.6225 3.37662 16.3136 3.37539H13.4978V1.68462C13.4966 1.37567 13.2464 1.12555 12.9375 1.12431H9.56251ZM23.625 2.24927H25.875V11.7668C25.8526 11.8898 25.5719 13.3496 24.5017 14.8605C24.2537 15.2106 23.9591 15.5571 23.625 15.8888V11.8118C23.6295 11.4947 23.3708 11.2367 23.0537 11.2416C22.7435 11.2459 22.4958 11.5015 22.5 11.8118V16.8029C21.8744 17.2055 21.132 17.5366 20.25 17.7477V4.4993H22.5V6.74927C22.4885 7.51061 23.6364 7.51061 23.625 6.74927V2.24927ZM10.1272 2.25037H12.3772V15.8932C12.0414 15.5604 11.7462 15.212 11.4972 14.8605C10.4224 13.3432 10.1471 11.8741 10.1272 11.7623V2.25037ZM13.4978 4.5004H15.7489V17.7477C14.8666 17.5364 14.1236 17.2057 13.4978 16.8029V4.5004ZM16.8739 6.74927H19.125V17.9388C18.7685 17.9769 18.3962 17.9992 18 17.9992C17.6038 17.9992 17.2304 17.9769 16.8739 17.9388V6.74927ZM27 6.74927H29.25V11.2482H27V6.74927ZM6.7511 6.75141H9.0011V11.2481H6.7511V6.75141ZM22.5 8.99924V9.56175C22.4885 10.3231 23.6364 10.3231 23.625 9.56175V8.99924C23.6295 8.68213 23.3708 8.42408 23.0537 8.42901C22.7435 8.43326 22.4958 8.68902 22.5 8.99924ZM5.13941 12.3731H9.11207C9.18966 12.7556 9.47076 13.9478 10.5787 15.5119C11.8522 17.3098 14.1707 19.1253 18 19.1253C21.8293 19.1253 24.1467 17.3098 25.4202 15.5119C26.5282 13.9476 26.8121 12.7555 26.8896 12.3731H30.8595L28.1316 33.1142C28.1299 33.1164 28.1288 33.1185 28.1271 33.1227C28.0794 33.5235 27.8813 33.75 27.5625 33.75H8.43641C8.11768 33.75 7.91933 33.5233 7.87171 33.1227C7.87173 33.1206 7.87173 33.1185 7.87171 33.1142L5.13941 12.3731ZM18 21.9378C15.5214 21.9378 13.4978 23.9559 13.4978 26.4345C13.4978 28.9132 15.5214 30.9356 18 30.9356C20.4786 30.9356 22.5 28.9132 22.5 26.4345C22.5 23.9559 20.4786 21.9378 18 21.9378ZM18 23.0628C19.8706 23.0628 21.375 24.5639 21.375 26.4345C21.375 28.3052 19.8706 29.8106 18 29.8106C16.1294 29.8106 14.6239 28.3052 14.6239 26.4345C14.6239 24.5639 16.1294 23.0628 18 23.0628Z" fill="black"/>
</svg>
