<svg width="20" height="18" viewBox="0 0 20 18" fill="none" xmlns="http://www.w3.org/2000/svg">
<path d="M6.25 0.299011C5.2933 0.424626 4.36113 0.791642 3.55 1.39999L1.35 3.04999C0.657534 3.56934 0.25 4.38441 0.25 5.24999V13.879C0.25 16.092 2.77641 17.3552 4.54677 16.0274C5.06228 15.6408 5.64605 15.3913 6.25 15.2788V0.299011Z" fill="#A8A8A8"/>
<path d="M7.75 15.2788C8.35395 15.3913 8.93772 15.6408 9.45323 16.0274L9.55 16.1C10.3611 16.7083 11.2933 17.0753 12.25 17.201V2.22114C11.6461 2.10871 11.0623 1.8592 10.5468 1.47257L10.45 1.39999C9.63887 0.791642 8.7067 0.424626 7.75 0.299011V15.2788Z" fill="#A8A8A8"/>
<path d="M13.75 2.22114V17.201C14.7067 17.0753 15.6389 16.7083 16.45 16.1L18.65 14.45C19.3425 13.9306 19.75 13.1156 19.75 12.25V3.62096C19.75 1.408 17.2236 0.144793 15.4532 1.47257C14.9377 1.8592 14.3539 2.10871 13.75 2.22114Z" fill="#A8A8A8"/>
</svg>
